<?xml version="1.0" encoding="utf-8"?>
<!-- Generator: Adobe Illustrator 16.0.0, SVG Export Plug-In . SVG Version: 6.00 Build 0)  -->
<!DOCTYPE svg PUBLIC "-//W3C//DTD SVG 1.1//EN" "http://www.w3.org/Graphics/SVG/1.1/DTD/svg11.dtd">
<svg version="1.1" id="Layer_1" xmlns="http://www.w3.org/2000/svg" xmlns:xlink="http://www.w3.org/1999/xlink" x="0px" y="0px"
	 width="72px" height="72px" viewBox="0 0 72 72" enable-background="new 0 0 72 72" xml:space="preserve">
<g>
	<path fill="#33A86A" d="M36,70.5C16.977,70.5,1.5,55.023,1.5,36C1.5,16.977,16.977,1.5,36,1.5c19.023,0,34.5,15.477,34.5,34.5
		C70.5,55.023,55.023,70.5,36,70.5z"/>
	<path fill="#267E50" d="M36,3c18.195,0,33,14.804,33,33c0,18.195-14.805,33-33,33C17.804,69,3,54.195,3,36C3,17.804,17.804,3,36,3
		 M36,0C16.118,0,0,16.118,0,36s16.118,36,36,36s36-16.118,36-36S55.882,0,36,0z"/>
</g>
</svg>
