<?xml version="1.0" encoding="utf-8"?>
<!-- Generator: Adobe Illustrator 16.0.0, SVG Export Plug-In . SVG Version: 6.00 Build 0)  -->
<!DOCTYPE svg PUBLIC "-//W3C//DTD SVG 1.1//EN" "http://www.w3.org/Graphics/SVG/1.1/DTD/svg11.dtd">
<svg version="1.1" id="Layer_1" xmlns="http://www.w3.org/2000/svg" xmlns:xlink="http://www.w3.org/1999/xlink" x="0px" y="0px"
	 width="72px" height="72px" viewBox="0 0 72 72" enable-background="new 0 0 72 72" xml:space="preserve">
<g>
	<path fill="#FFDE17" d="M36,70.5C16.977,70.5,1.5,55.023,1.5,36S16.977,1.5,36,1.5S70.5,16.977,70.5,36S55.023,70.5,36,70.5z"/>
	<path fill="#8DC63F" d="M36,3c18.196,0,33,14.804,33,33S54.196,69,36,69S3,54.196,3,36S17.804,3,36,3 M36,0C16.118,0,0,16.118,0,36
		c0,19.882,16.118,36,36,36c19.882,0,36-16.118,36-36C72,16.118,55.882,0,36,0z"/>
</g>
<g>
	<path fill="#009444" d="M35.998,16.113c6.139,0,11.112,4.976,11.112,11.113c0,6.134-4.973,11.11-11.112,11.11
		c-6.137,0-11.107-4.976-11.107-11.11C24.89,21.088,29.861,16.113,35.998,16.113"/>
	<path fill="#009444" d="M45.074,37.363c-2.41,2.16-5.591,3.477-9.077,3.477c-3.483,0-6.664-1.316-9.072-3.477
		c-6.471,3.439-10.914,10.436-10.963,18.523h40.076C55.988,47.799,51.545,40.801,45.074,37.363z"/>
</g>
</svg>
