<?xml version="1.0" encoding="utf-8"?>
<!-- Generator: Adobe Illustrator 16.0.0, SVG Export Plug-In . SVG Version: 6.00 Build 0)  -->
<!DOCTYPE svg PUBLIC "-//W3C//DTD SVG 1.1//EN" "http://www.w3.org/Graphics/SVG/1.1/DTD/svg11.dtd">
<svg version="1.1" id="Layer_1" xmlns="http://www.w3.org/2000/svg" xmlns:xlink="http://www.w3.org/1999/xlink" x="0px" y="0px"
	 width="360px" height="78.182px" viewBox="0 0 360 78.182" enable-background="new 0 0 360 78.182" xml:space="preserve">
<g>
	<g opacity="0.5">
		<g>
			<path fill="#3C3C3C" d="M25.121,15.583c0.151-0.192,0.178-0.448,0.072-0.667c-0.106-0.22-0.325-0.356-0.569-0.356h-2.359
				c0.006-0.438-0.21-0.856-0.573-1.107l0.187-0.477c0.063-0.162-0.016-0.344-0.178-0.405c-0.162-0.064-0.345,0.016-0.408,0.178
				l-0.189,0.479c-0.583-0.067-1.165,0.26-1.39,0.83l-0.197,0.504h-8.355c-0.244,0-0.462,0.139-0.568,0.356
				c-0.107,0.219-0.08,0.475,0.071,0.667l6.914,8.8v4.926c0,1.123-0.913,2.035-2.035,2.035h-1.007c-0.174,0-0.315,0.144-0.315,0.313
				c0,0.174,0.141,0.313,0.315,0.313h6.713c0.173,0,0.314-0.142,0.314-0.313s-0.141-0.313-0.314-0.313h-1.007
				c-1.122,0-2.035-0.914-2.035-2.035v-4.926L25.121,15.583z M19.457,18.546c0.328,0,0.475,0.063,0.66,0.143
				c0.211,0.093,0.452,0.193,0.908,0.193c0.402,0,0.636-0.08,0.831-0.161l-3.962,5.043l-3.962-5.043
				c0.194,0.081,0.428,0.161,0.829,0.161c0.456,0,0.696-0.103,0.907-0.193c0.186-0.077,0.332-0.143,0.659-0.143
				c0.327,0,0.473,0.063,0.659,0.143c0.211,0.093,0.451,0.193,0.907,0.193s0.696-0.103,0.907-0.193
				C18.983,18.61,19.13,18.546,19.457,18.546z M20.3,14.286c0.14-0.355,0.542-0.53,0.898-0.394c0.276,0.108,0.446,0.383,0.438,0.666
				h-1.443L20.3,14.286z M11.162,15.192l13.464-0.004l0.001,0.008l-2.141,2.725c-0.388,0.015-0.606,0.108-0.801,0.191
				c-0.186,0.08-0.333,0.143-0.66,0.143c-0.327,0-0.474-0.063-0.66-0.143c-0.125-0.057-0.26-0.111-0.444-0.149l0.64-1.628
				c0.063-0.162-0.016-0.345-0.178-0.408c-0.162-0.063-0.345,0.019-0.408,0.178l-0.715,1.822c-0.332,0.025-0.531,0.109-0.709,0.188
				c-0.186,0.08-0.333,0.143-0.659,0.143c-0.327,0-0.474-0.063-0.659-0.143c-0.211-0.094-0.451-0.193-0.907-0.193
				s-0.695,0.104-0.907,0.193c-0.186,0.08-0.332,0.143-0.659,0.143c-0.327,0-0.473-0.063-0.659-0.143
				c-0.194-0.083-0.413-0.18-0.801-0.191l-2.142-2.725L11.162,15.192z M18.525,31.345H17.26c0.257-0.218,0.472-0.479,0.632-0.781
				C18.053,30.863,18.269,31.127,18.525,31.345z"/>
		</g>
		<path fill="#3C3C3C" d="M18.655,19.459L17.6,22.143c-0.063,0.162,0.016,0.349,0.178,0.408l0.115,0.022
			c0.125,0,0.244-0.076,0.293-0.2l1.055-2.688c0.064-0.159-0.016-0.344-0.178-0.405C18.901,19.215,18.719,19.297,18.655,19.459z"/>
		<g>
			<path fill="#3C3C3C" d="M188.579,24.413c-0.069-0.096-0.181-0.152-0.3-0.152h-0.456l0.008-0.136
				c0.04-0.634,0.09-1.422-0.25-2.157c-0.354-0.771-1.054-1.313-2.123-1.646c0.592-1.67,0.001-3.167-0.632-4.158
				c-1.004-1.571-2.646-2.715-3.715-2.938c-0.164-1.355-1.322-2.415-2.724-2.415c-1.514,0-2.746,1.231-2.746,2.745
				c0,0.582,0.188,1.146,0.523,1.608c-0.488,0.034-0.978,0.056-1.445,0.077c-0.93,0.042-1.809,0.081-2.457,0.206
				c-0.179,0.032-0.559,0.105-0.864,0.3l-0.054,0.021c-0.738,0.408-1.412,1.604-1.638,2.904c-0.163,0.939-0.059,1.753,0.29,2.341
				c-0.5,0.416-1.415,1.242-1.516,3.25h-0.777c-0.119,0-0.23,0.059-0.3,0.151c-0.07,0.097-0.09,0.218-0.054,0.331l2.506,7.878
				c0.207,0.646,0.803,1.086,1.485,1.086h0.713h0.001h0.002h1.58h0.001l0,0h8.706h0.001h1.58h0.002h0.001h0.714
				c0.685,0,1.277-0.438,1.484-1.086l2.507-7.878C188.669,24.632,188.648,24.509,188.579,24.413z M176.384,13.552
				c0-1.104,0.898-2.003,2.003-2.003c1.088,0,1.975,0.872,2.002,1.954c-0.313,1.006-1.712,1.396-3.3,1.576
				C176.64,14.697,176.384,14.15,176.384,13.552z M172.403,16.172c0.595-0.115,1.448-0.153,2.35-0.193
				c2.45-0.107,5.468-0.243,6.256-2.021c0.313,0.075,0.783,0.279,1.347,0.679c0.729,0.521,1.388,1.202,1.849,1.923
				c0.547,0.858,1.063,2.153,0.532,3.571c-0.772-0.171-1.865-0.351-3.105-0.555c-2.085-0.344-4.68-0.772-6.688-1.321
				c-0.977-0.267-3.247-0.973-3.247-1.761C171.693,16.408,171.878,16.272,172.403,16.172z M170.438,18.797
				c0.11-0.635,0.359-1.271,0.657-1.738c0.82,1.543,5.051,2.364,10.412,3.248c1.4,0.231,2.61,0.434,3.362,0.616
				c2.382,0.586,2.296,1.952,2.221,3.156l-0.011,0.182h-9.902c-0.282-0.113-1.45-0.584-2.727-1.188
				c-1.904-0.9-3.175-1.681-3.677-2.247C170.409,20.412,170.287,19.673,170.438,18.797z M173.963,32.966l-1.086-7.963h1.99
				l0.362,7.963H173.963z M172.353,32.966l-1.81-7.963h1.585l1.086,7.963H172.353z M175.61,25.003h1.495h0.002h0.001h0.512v7.963
				h-1.648L175.61,25.003z M170.477,21.576c1.035,0.935,3.234,1.999,4.788,2.685h-6.042
				C169.314,22.593,170.016,21.959,170.477,21.576z M170.564,32.4l-2.353-7.396h1.57l1.81,7.963h-0.25
				C170.984,32.966,170.672,32.739,170.564,32.4z M185.42,32.4c-0.107,0.34-0.421,0.564-0.777,0.564h-0.25l1.246-5.479
				c0.045-0.2-0.08-0.398-0.279-0.444c-0.196-0.045-0.396,0.08-0.441,0.279l-1.283,5.646h-0.857l0.535-3.932
				c0.024-0.203-0.113-0.394-0.316-0.417c-0.203-0.028-0.391,0.111-0.418,0.314l-0.551,4.031h-1.27l0.108-2.382
				c0.01-0.205-0.149-0.378-0.354-0.387c-0.206-0.01-0.379,0.146-0.389,0.354l-0.109,2.416h-1.649V25h2.01l-0.18,3.966
				c-0.01,0.205,0.149,0.377,0.354,0.387h0.02c0.197,0,0.359-0.152,0.371-0.354L181.122,25h1.989l-0.319,2.35
				c-0.026,0.203,0.113,0.393,0.315,0.418l0.052,0.002c0.184,0,0.343-0.135,0.366-0.317l0.334-2.449h1.586l-0.165,0.734
				c-0.048,0.196,0.079,0.396,0.278,0.44l0.082,0.01c0.17,0,0.32-0.114,0.359-0.286l0.204-0.898h1.567L185.42,32.4z"/>
		</g>
		<path fill="#3C3C3C" d="M178.388,12.39c-0.205,0-0.371,0.166-0.371,0.371s0.166,0.371,0.371,0.371c0.231,0,0.42,0.189,0.42,0.42
			c0,0.205,0.166,0.371,0.371,0.371c0.205,0,0.371-0.166,0.371-0.371C179.55,12.911,179.028,12.39,178.388,12.39z"/>
		<path fill="#3C3C3C" d="M179.123,21.437c0.274,0.042,0.538,0.082,0.79,0.122l0.058,0.004c0.18,0,0.338-0.131,0.366-0.313
			c0.031-0.203-0.106-0.392-0.31-0.424c-0.253-0.039-0.518-0.08-0.793-0.122c-0.202-0.03-0.392,0.105-0.422,0.311
			S178.92,21.407,179.123,21.437z"/>
		<path fill="#3C3C3C" d="M181.492,21.813c3.941,0.663,3.99,0.958,4.048,1.3c0.03,0.181,0.188,0.31,0.364,0.31l0.063-0.005
			c0.202-0.033,0.34-0.225,0.305-0.427c-0.07-0.448-0.263-0.784-0.969-1.073c-0.621-0.254-1.725-0.503-3.688-0.833
			c-0.202-0.034-0.393,0.103-0.428,0.305C181.152,21.588,181.29,21.78,181.492,21.813z"/>
		<path fill="#3C3C3C" d="M181.341,15.835c0.168,0.117,0.327,0.242,0.474,0.37l0.244,0.092c0.104,0,0.205-0.043,0.279-0.126
			c0.135-0.154,0.119-0.389-0.035-0.521c-0.166-0.146-0.347-0.288-0.537-0.423c-0.168-0.114-0.396-0.073-0.517,0.095
			S181.173,15.718,181.341,15.835z"/>
		<path fill="#3C3C3C" d="M183.16,18.698c0,0.205,0.167,0.371,0.371,0.371c0.205,0,0.371-0.166,0.371-0.371
			c0-0.198-0.038-0.908-0.534-1.771c-0.103-0.177-0.329-0.235-0.507-0.136s-0.238,0.329-0.137,0.507
			C183.148,18.033,183.16,18.631,183.16,18.698z"/>
		<path fill="#3C3C3C" d="M142.949,17.509c0-1.617-1.229-2.952-2.801-3.122c0.02-0.145,0.031-0.292,0.031-0.438
			c0-1.732-1.409-3.144-3.141-3.144s-3.141,1.409-3.141,3.144c0,0.146,0.01,0.294,0.031,0.438c-1.572,0.17-2.801,1.505-2.801,3.122
			c0,0.97,0.45,1.879,1.2,2.469l0.005,0.021l4.353,13.454c0.05,0.15,0.192,0.257,0.354,0.257c0.161,0,0.303-0.104,0.353-0.257
			l4.353-13.454l0.005-0.021C142.505,19.386,142.949,18.485,142.949,17.509z M142.207,17.509c0,0.813-0.403,1.56-1.08,2.003h-2.637
			c-0.677-0.443-1.081-1.188-1.081-2.003c0-1.323,1.076-2.396,2.399-2.396C141.131,15.112,142.207,16.186,142.207,17.509z
			 M137.387,19.513h-0.698c0.134-0.161,0.25-0.335,0.349-0.519C137.136,19.178,137.253,19.351,137.387,19.513z M137.038,11.549
			c1.323,0,2.398,1.076,2.398,2.399c0,0.148-0.015,0.301-0.042,0.445c-1.021,0.138-1.889,0.765-2.356,1.637
			c-0.468-0.873-1.336-1.499-2.357-1.637c-0.027-0.146-0.042-0.297-0.042-0.445C134.639,12.625,135.715,11.549,137.038,11.549z
			 M131.869,17.509c0-1.323,1.076-2.396,2.399-2.396c1.323,0,2.399,1.073,2.399,2.396c0,0.813-0.404,1.56-1.081,2.003h-2.638
			C132.278,19.071,131.869,18.319,131.869,17.509z M139.068,20.255l-0.189,0.076c-0.19,0.076-0.283,0.292-0.207,0.479
			c0.058,0.146,0.197,0.233,0.345,0.233l0.137-0.027l1.699-0.68l-0.732,2.263l-0.847,0.343c-0.19,0.073-0.283,0.292-0.207,0.479
			c0.058,0.146,0.197,0.232,0.345,0.232l0.138-0.027l0.274-0.109l-0.732,2.267l-1.425,0.567c-0.19,0.076-0.283,0.291-0.207,0.481
			c0.058,0.146,0.197,0.233,0.344,0.233l0.138-0.027l0.852-0.341l-0.732,2.265l-1.813,0.729l-0.565-1.746l0.898-0.359
			c0.19-0.075,0.283-0.292,0.207-0.481c-0.076-0.188-0.292-0.28-0.482-0.204l-0.852,0.341l-0.564-1.744l1.098-0.438
			c0.19-0.074,0.283-0.293,0.207-0.479c-0.076-0.189-0.292-0.283-0.482-0.207l-1.052,0.42l-0.564-1.745l1.434-0.573
			c0.19-0.075,0.283-0.293,0.207-0.479c-0.076-0.19-0.292-0.283-0.482-0.207l-1.387,0.555l-0.673-2.08L139.068,20.255
			L139.068,20.255L139.068,20.255z M137.038,32.132l-0.561-1.729l1.287-0.518L137.038,32.132z"/>
		<path fill="#3C3C3C" d="M134.268,16.694c0.45,0,0.816,0.363,0.816,0.813c0,0.205,0.166,0.371,0.371,0.371s0.371-0.166,0.371-0.371
			c0-0.856-0.699-1.558-1.558-1.558c-0.205,0-0.371,0.167-0.371,0.371C133.897,16.528,134.063,16.694,134.268,16.694z"/>
		<path fill="#3C3C3C" d="M137.038,13.132c0.45,0,0.816,0.366,0.816,0.816c0,0.205,0.166,0.371,0.371,0.371s0.371-0.167,0.371-0.371
			c0-0.859-0.699-1.561-1.558-1.561c-0.205,0-0.371,0.166-0.371,0.371S136.833,13.132,137.038,13.132z"/>
		<path fill="#3C3C3C" d="M139.437,16.323c0,0.205,0.166,0.371,0.371,0.371c0.45,0,0.816,0.363,0.816,0.813
			c0,0.205,0.166,0.371,0.371,0.371s0.371-0.166,0.371-0.371c0-0.856-0.699-1.558-1.558-1.558
			C139.603,15.951,139.437,16.118,139.437,16.323z"/>
		<path fill="#3C3C3C" d="M136.76,21.949l0.138-0.026l0.822-0.33c0.19-0.076,0.283-0.292,0.207-0.479
			c-0.076-0.19-0.292-0.283-0.482-0.207l-0.823,0.329c-0.19,0.073-0.283,0.292-0.207,0.479
			C136.473,21.861,136.612,21.949,136.76,21.949z"/>
		<path fill="#3C3C3C" d="M137.048,23.832c-0.19,0.076-0.283,0.292-0.207,0.479c0.059,0.146,0.198,0.234,0.345,0.234l0.138-0.027
			l0.841-0.336c0.19-0.073,0.283-0.293,0.207-0.479c-0.076-0.189-0.292-0.283-0.482-0.206L137.048,23.832z"/>
		<path fill="#3C3C3C" d="M348.368,29.406h-0.421V23.05c0-1.078-0.876-1.955-1.954-1.955h-0.42v-6.354
			c0-1.078-0.877-1.954-1.954-1.954H332.54c-1.077,0-1.954,0.876-1.954,1.954v6.354h-0.421c-1.077,0-1.953,0.876-1.953,1.955v6.355
			h-0.421c-0.641,0-1.162,0.521-1.162,1.163c0,0.641,0.521,1.158,1.162,1.158h20.577c0.641,0,1.162-0.521,1.162-1.158
			C349.53,29.927,349.009,29.406,348.368,29.406z M332.54,13.529h11.079c0.668,0,1.212,0.543,1.212,1.212
			c0,0.45-0.366,0.813-0.816,0.813c-0.445,0-0.813-0.363-0.813-0.813c0-0.205-0.166-0.371-0.371-0.371s-0.371,0.166-0.371,0.371
			c0,0.45-0.366,0.813-0.816,0.813c-0.445,0-0.813-0.363-0.813-0.813c0-0.205-0.167-0.371-0.371-0.371
			c-0.205,0-0.371,0.166-0.371,0.371c0,0.45-0.366,0.813-0.813,0.813c-0.449,0-0.815-0.363-0.815-0.813
			c0-0.205-0.166-0.371-0.371-0.371c-0.204,0-0.37,0.166-0.37,0.371c0,0.45-0.365,0.813-0.813,0.813
			c-0.449,0-0.815-0.363-0.815-0.813c0-0.205-0.166-0.371-0.371-0.371c-0.204,0-0.371,0.166-0.371,0.371
			c0,0.45-0.363,0.813-0.813,0.813c-0.45,0-0.816-0.363-0.816-0.813c0-0.205-0.166-0.371-0.371-0.371s-0.371,0.166-0.371,0.371
			c0,0.45-0.364,0.813-0.813,0.813c-0.448,0-0.814-0.363-0.814-0.813C331.328,14.072,331.871,13.529,332.54,13.529z M331.328,20.255
			h8.334c0.205,0,0.371-0.167,0.371-0.371c0-0.205-0.166-0.371-0.371-0.371h-8.334v-3.444c0.237,0.146,0.517,0.229,0.813,0.229
			c0.479,0,0.901-0.214,1.188-0.551c0.286,0.336,0.712,0.551,1.188,0.551c0.479,0,0.9-0.214,1.188-0.551
			c0.286,0.336,0.712,0.551,1.188,0.551c0.479,0,0.901-0.214,1.188-0.551c0.286,0.336,0.712,0.551,1.188,0.551
			c0.479,0,0.901-0.214,1.188-0.551c0.286,0.336,0.712,0.551,1.187,0.551c0.479,0,0.901-0.214,1.188-0.551
			c0.286,0.336,0.712,0.551,1.187,0.551c0.304,0,0.579-0.085,0.816-0.229v3.444h-1.212c-0.204,0-0.371,0.166-0.371,0.371
			s0.167,0.371,0.371,0.371h1.212v0.84h-13.503v-0.84H331.328z M330.165,21.837h15.828c0.669,0,1.212,0.543,1.212,1.213
			c0,0.449-0.366,0.815-0.815,0.815c-0.446,0-0.813-0.366-0.813-0.815c0-0.205-0.166-0.371-0.371-0.371s-0.371,0.166-0.371,0.371
			c0,0.449-0.366,0.815-0.816,0.815c-0.445,0-0.813-0.366-0.813-0.815c0-0.205-0.166-0.371-0.371-0.371s-0.371,0.166-0.371,0.371
			c0,0.449-0.366,0.815-0.814,0.815c-0.447,0-0.813-0.366-0.813-0.815c0-0.205-0.167-0.371-0.371-0.371
			c-0.205,0-0.371,0.166-0.371,0.371c0,0.449-0.365,0.815-0.813,0.815c-0.449,0-0.815-0.366-0.815-0.815
			c0-0.205-0.166-0.371-0.371-0.371c-0.204,0-0.37,0.166-0.37,0.371c0,0.449-0.364,0.815-0.813,0.815s-0.815-0.366-0.815-0.815
			c0-0.205-0.166-0.371-0.371-0.371c-0.204,0-0.37,0.166-0.37,0.371c0,0.449-0.364,0.815-0.813,0.815s-0.815-0.366-0.815-0.815
			c0-0.205-0.166-0.371-0.37-0.371c-0.205,0-0.371,0.166-0.371,0.371c0,0.449-0.365,0.815-0.813,0.815
			c-0.449,0-0.814-0.366-0.814-0.815c0-0.205-0.166-0.371-0.371-0.371c-0.204,0-0.37,0.166-0.37,0.371
			c0,0.449-0.365,0.815-0.814,0.815s-0.814-0.366-0.814-0.815C328.954,22.382,329.497,21.837,330.165,21.837z M328.954,28.563
			h13.082c0.205,0,0.371-0.162,0.371-0.367s-0.166-0.371-0.371-0.371h-13.082v-3.446c0.237,0.146,0.517,0.231,0.813,0.231
			c0.479,0,0.901-0.217,1.188-0.555c0.286,0.336,0.712,0.555,1.187,0.555c0.479,0,0.901-0.217,1.188-0.555
			c0.286,0.336,0.712,0.555,1.188,0.555c0.479,0,0.9-0.217,1.188-0.555c0.286,0.336,0.712,0.555,1.188,0.555
			c0.479,0,0.901-0.217,1.188-0.555c0.286,0.336,0.712,0.555,1.188,0.555c0.479,0,0.901-0.217,1.188-0.555
			c0.286,0.336,0.712,0.555,1.187,0.555c0.479,0,0.901-0.217,1.188-0.555c0.286,0.336,0.712,0.555,1.187,0.555
			c0.479,0,0.901-0.217,1.188-0.555c0.286,0.336,0.712,0.555,1.188,0.555c0.303,0,0.578-0.088,0.815-0.231v3.446H346
			c-0.205,0-0.371,0.167-0.371,0.371c0,0.205,0.166,0.367,0.371,0.367h1.211v0.845H328.96v-0.845H328.954z M348.368,30.989h-20.577
			c-0.231,0-0.42-0.188-0.42-0.42c0-0.232,0.188-0.42,0.42-0.42h20.577c0.229,0,0.42,0.188,0.42,0.42
			C348.788,30.8,348.6,30.989,348.368,30.989z"/>
		<path fill="#3C3C3C" d="M344.41,27.823h-0.791c-0.205,0-0.371,0.167-0.371,0.371c0,0.205,0.166,0.367,0.371,0.367h0.791
			c0.205,0,0.371-0.162,0.371-0.367C344.781,27.99,344.615,27.823,344.41,27.823z"/>
		<path fill="#3C3C3C" d="M342.036,19.513h-0.791c-0.205,0-0.371,0.166-0.371,0.371s0.166,0.371,0.371,0.371h0.791
			c0.205,0,0.371-0.167,0.371-0.371C342.407,19.679,342.241,19.513,342.036,19.513z"/>
		<path fill="#3C3C3C" d="M336.893,17.138c-0.201,0-0.367,0.167-0.367,0.371v0.396c0,0.205,0.165,0.371,0.367,0.371
			c0.205,0,0.371-0.167,0.371-0.371v-0.396C337.264,17.305,337.098,17.138,336.893,17.138z"/>
		<path fill="#3C3C3C" d="M339.267,17.138c-0.204,0-0.367,0.167-0.367,0.371v0.396c0,0.205,0.165,0.371,0.367,0.371
			c0.205,0,0.371-0.167,0.371-0.371v-0.396C339.638,17.305,339.472,17.138,339.267,17.138z"/>
		<path fill="#3C3C3C" d="M341.641,18.277c0.205,0,0.371-0.167,0.371-0.371v-0.396c0-0.205-0.166-0.371-0.371-0.371
			c-0.204,0-0.371,0.167-0.371,0.371v0.396C341.27,18.111,341.438,18.277,341.641,18.277z"/>
		<path fill="#3C3C3C" d="M344.015,18.277c0.205,0,0.371-0.167,0.371-0.371v-0.396c0-0.205-0.166-0.371-0.371-0.371
			c-0.204,0-0.37,0.167-0.37,0.371v0.396C343.645,18.111,343.811,18.277,344.015,18.277z"/>
		<path fill="#3C3C3C" d="M332.144,17.138c-0.2,0-0.366,0.167-0.366,0.371v0.396c0,0.205,0.166,0.371,0.366,0.371
			c0.205,0,0.371-0.167,0.371-0.371v-0.396C332.515,17.305,332.349,17.138,332.144,17.138z"/>
		<path fill="#3C3C3C" d="M334.519,17.138c-0.201,0-0.367,0.167-0.367,0.371v0.396c0,0.205,0.166,0.371,0.367,0.371
			c0.204,0,0.371-0.167,0.371-0.371v-0.396C334.89,17.305,334.723,17.138,334.519,17.138z"/>
		<path fill="#3C3C3C" d="M336.893,25.448c-0.201,0-0.367,0.166-0.367,0.371v0.396c0,0.204,0.165,0.37,0.367,0.37
			c0.205,0,0.371-0.166,0.371-0.37V25.82C337.264,25.615,337.098,25.448,336.893,25.448z"/>
		<path fill="#3C3C3C" d="M339.267,25.448c-0.204,0-0.367,0.166-0.367,0.371v0.396c0,0.204,0.165,0.37,0.367,0.37
			c0.205,0,0.371-0.166,0.371-0.37V25.82C339.638,25.615,339.472,25.448,339.267,25.448z"/>
		<path fill="#3C3C3C" d="M341.641,25.448c-0.204,0-0.371,0.166-0.371,0.371v0.396c0,0.204,0.167,0.37,0.371,0.37
			c0.205,0,0.371-0.166,0.371-0.37V25.82C342.012,25.615,341.846,25.448,341.641,25.448z"/>
		<path fill="#3C3C3C" d="M344.015,26.586c0.205,0,0.371-0.166,0.371-0.37v-0.396c0-0.205-0.166-0.371-0.371-0.371
			c-0.204,0-0.37,0.166-0.37,0.371v0.396C343.645,26.42,343.811,26.586,344.015,26.586z"/>
		<path fill="#3C3C3C" d="M346.39,26.586c0.204,0,0.371-0.166,0.371-0.37v-0.396c0-0.205-0.167-0.371-0.371-0.371
			c-0.205,0-0.371,0.166-0.371,0.371v0.396C346.019,26.42,346.185,26.586,346.39,26.586z"/>
		<path fill="#3C3C3C" d="M329.77,25.448c-0.2,0-0.367,0.166-0.367,0.371v0.396c0,0.204,0.167,0.37,0.367,0.37
			c0.205,0,0.371-0.166,0.371-0.37V25.82C330.141,25.615,329.975,25.448,329.77,25.448z"/>
		<path fill="#3C3C3C" d="M332.144,25.448c-0.2,0-0.366,0.166-0.366,0.371v0.396c0,0.204,0.166,0.37,0.366,0.37
			c0.205,0,0.371-0.166,0.371-0.37V25.82C332.515,25.615,332.349,25.448,332.144,25.448z"/>
		<path fill="#3C3C3C" d="M334.519,25.448c-0.201,0-0.367,0.166-0.367,0.371v0.396c0,0.204,0.166,0.37,0.367,0.37
			c0.204,0,0.371-0.166,0.371-0.37V25.82C334.89,25.615,334.723,25.448,334.519,25.448z"/>
		<g>
			<path fill="#3C3C3C" d="M267.709,21.96l-1.795-1.323l0.243-0.729c0.114-0.346-0.022-0.713-0.333-0.9l-1.34-0.804
				c-0.187-0.109-0.404-0.138-0.608-0.079l-0.106,0.042c-0.168-0.22-0.395-0.597-0.52-1.136c-0.077-0.333-0.286-0.609-0.604-0.797
				c-0.375-0.226-0.842-0.292-1.248-0.271c0.004-0.437-0.235-0.846-0.646-1.049l-0.027-0.015c-0.019-0.181-0.056-0.437-0.146-0.709
				c-0.229-0.691-0.669-1.173-1.281-1.388c-0.602-0.211-1.009-0.165-1.335-0.128c-0.424,0.048-0.729,0.083-1.488-0.453
				c-0.677-0.473-1.314-0.453-1.83-0.437c-0.311,0.01-0.574,0.018-0.82-0.063l-0.006-0.001l-1.146-0.845
				c-0.111-0.083-0.263-0.095-0.387-0.032c-0.125,0.063-0.204,0.191-0.204,0.331v20.184c0,1.295,1.054,2.35,2.351,2.35h11.078
				c1.297,0,2.35-1.054,2.35-2.35v-9.101C267.859,22.139,267.805,22.031,267.709,21.96z M265.441,19.643l0.013,0.029l-0.168,0.502
				l-1.374-1.012l0.156-0.313l0.015-0.013l0.021,0.002L265.441,19.643z M260.424,15.579c0.178,0.089,0.268,0.285,0.221,0.478
				l-0.146,0.588l-2.009-1.479l0.152-0.155c0.129-0.128,0.322-0.16,0.484-0.079L260.424,15.579z M262.268,16.871
				c0.146,0.085,0.229,0.189,0.26,0.327c0.156,0.669,0.441,1.144,0.662,1.432l-2.047-1.509l0.102-0.395
				C261.552,16.673,261.98,16.701,262.268,16.871z M256.048,12.833c0.994,0.697,1.507,0.639,2.002,0.583
				c0.304-0.035,0.565-0.064,1.007,0.091c0.387,0.136,0.66,0.438,0.814,0.896l0.025,0.083l-0.438-0.222
				c-0.446-0.224-0.985-0.137-1.342,0.221l-0.234,0.231l-2.978-2.191C255.297,12.521,255.654,12.558,256.048,12.833z M267.118,31.36
				c0,0.887-0.722,1.604-1.608,1.604h-11.078c-0.888,0-1.604-0.721-1.604-1.604V11.913L259.729,17l5.916,5.916
				c0.071,0.072,0.168,0.108,0.266,0.108c0.095,0,0.188-0.036,0.262-0.108c0.146-0.146,0.146-0.38,0-0.524l-2.453-2.454l3.403,2.51
				L267.118,31.36L267.118,31.36z"/>
		</g>
		<path fill="#3C3C3C" d="M254.297,13.686c-0.145-0.145-0.38-0.145-0.523,0c-0.146,0.146-0.146,0.382,0,0.524l11.871,11.871
			c0.071,0.072,0.168,0.109,0.266,0.109c0.095,0,0.188-0.037,0.262-0.109c0.146-0.146,0.146-0.38,0-0.523L254.297,13.686z"/>
		<path fill="#3C3C3C" d="M254.297,16.852c-0.145-0.145-0.38-0.145-0.523,0c-0.145,0.146-0.146,0.379,0,0.524l11.871,11.871
			c0.071,0.072,0.168,0.106,0.266,0.106c0.095,0,0.188-0.034,0.262-0.106c0.146-0.146,0.146-0.38,0-0.523L254.297,16.852z"/>
		<path fill="#3C3C3C" d="M254.297,20.017c-0.145-0.145-0.38-0.145-0.523,0c-0.145,0.146-0.146,0.379,0,0.524l11.479,11.476
			c0.068,0.072,0.167,0.109,0.264,0.109c0.098,0,0.188-0.037,0.264-0.109c0.146-0.145,0.146-0.379,0-0.521L254.297,20.017z"/>
		<path fill="#3C3C3C" d="M254.297,23.182c-0.145-0.145-0.38-0.145-0.523,0c-0.146,0.146-0.146,0.381,0,0.525l8.313,8.311
			c0.071,0.072,0.168,0.108,0.266,0.108c0.096,0,0.188-0.036,0.262-0.108c0.146-0.146,0.146-0.381,0-0.521L254.297,23.182z"/>
		<path fill="#3C3C3C" d="M254.297,26.348c-0.145-0.146-0.38-0.146-0.523,0c-0.146,0.146-0.146,0.379,0,0.524l5.146,5.144
			c0.072,0.072,0.167,0.109,0.264,0.109s0.188-0.037,0.265-0.109c0.145-0.145,0.145-0.379,0-0.521L254.297,26.348z"/>
		<path fill="#3C3C3C" d="M254.297,29.514c-0.145-0.146-0.38-0.146-0.523,0c-0.146,0.146-0.146,0.379,0,0.523l1.979,1.979
			c0.072,0.072,0.168,0.109,0.265,0.109c0.094,0,0.188-0.037,0.262-0.109c0.146-0.145,0.146-0.379,0-0.521L254.297,29.514z"/>
		<path fill="#3C3C3C" d="M227.768,21.323c-0.205,0-0.371-0.166-0.371-0.371c0-2.397-0.903-4.206-2.69-5.376
			c-1.604-1.048-3.854-1.58-6.704-1.58s-5.104,0.531-6.705,1.58c-1.787,1.17-2.689,2.979-2.689,5.376
			c0,0.205-0.166,0.371-0.371,0.371s-0.371-0.166-0.371-0.371c0-4.964,3.602-7.698,10.141-7.698s10.141,2.734,10.141,7.698
			C228.139,21.157,227.973,21.323,227.768,21.323z"/>
		<circle fill="#3C3C3C" cx="211.716" cy="17.67" r="0.371"/>
		<circle fill="#3C3C3C" cx="224.279" cy="17.67" r="0.371"/>
		<circle fill="#3C3C3C" cx="222.796" cy="28.65" r="0.371"/>
		<circle fill="#3C3C3C" cx="213.2" cy="18.708" r="0.371"/>
		<path fill="#3C3C3C" d="M224.799,31.266h-13.604c-1.84,0-3.338-1.498-3.338-3.34c0-0.205,0.166-0.371,0.371-0.371
			s0.371,0.168,0.371,0.371c0,1.436,1.164,2.601,2.596,2.601h13.604c1.432,0,2.598-1.165,2.598-2.601
			c0-0.205,0.166-0.371,0.371-0.371s0.371,0.168,0.371,0.371C228.139,29.768,226.641,31.266,224.799,31.266z"/>
		<path fill="#3C3C3C" d="M227.768,25.032h-19.539c-1.021,0-1.854-0.832-1.854-1.854v-0.742c0-1.021,0.832-1.854,1.854-1.854h19.539
			c1.021,0,1.854,0.832,1.854,1.854v0.742C229.621,24.2,228.789,25.032,227.768,25.032z M208.229,21.323
			c-0.609,0-1.108,0.499-1.108,1.11v0.742c0,0.613,0.499,1.112,1.108,1.112h19.539c0.613,0,1.112-0.499,1.112-1.112v-0.742
			c0-0.611-0.499-1.11-1.112-1.11H208.229z"/>
		<path fill="#3C3C3C" d="M225.5,27.505c-1.029,0-1.57-0.285-2.049-0.537c-0.46-0.242-0.855-0.451-1.703-0.451
			c-0.846,0-1.242,0.209-1.702,0.451c-0.478,0.252-1.019,0.537-2.049,0.537c-1.029,0-1.57-0.285-2.048-0.537
			c-0.461-0.242-0.856-0.451-1.702-0.451c-0.847,0-1.243,0.209-1.703,0.451c-0.478,0.252-1.019,0.537-2.048,0.537
			s-1.571-0.285-2.049-0.537c-0.459-0.242-0.856-0.451-1.702-0.451c-0.205,0-0.371-0.166-0.371-0.371
			c0-0.202,0.166-0.368,0.371-0.368c1.028,0,1.569,0.282,2.049,0.534c0.459,0.242,0.856,0.453,1.702,0.453s1.242-0.209,1.702-0.453
			c0.478-0.252,1.019-0.534,2.049-0.534c1.028,0,1.569,0.282,2.048,0.534c0.46,0.242,0.855,0.453,1.702,0.453
			s1.243-0.209,1.703-0.453c0.478-0.252,1.019-0.534,2.048-0.534s1.57,0.282,2.049,0.534c0.46,0.242,0.855,0.453,1.703,0.453
			c0.846,0,1.242-0.209,1.702-0.453c0.478-0.252,1.019-0.534,2.049-0.534c0.205,0,0.37,0.166,0.37,0.368
			c0,0.205-0.165,0.371-0.37,0.371c-0.847,0-1.243,0.209-1.703,0.451C227.07,27.22,226.529,27.505,225.5,27.505z"/>
		<g>
			<path fill="#3C3C3C" d="M305.834,17.906c0-0.584-0.436-1.07-0.997-1.15l-1.022-1.021c-0.369-0.369-0.856-0.572-1.381-0.572
				h-3.326v-1.497c0-0.576,0.41-1.075,0.978-1.188l4.663-0.933c0.197-0.04,0.331-0.236,0.291-0.438
				c-0.04-0.198-0.236-0.328-0.438-0.288l-4.664,0.933c-0.91,0.182-1.568,0.988-1.568,1.916v1.497h-3.326
				c-0.521,0-1.014,0.203-1.381,0.572l-1.021,1.021c-0.563,0.081-0.996,0.566-0.996,1.15c0,0.518,0.342,0.958,0.812,1.104
				l0.729,12.416c0.026,0.5,0.371,0.912,0.834,1.047v0.072c0,0.641,0.521,1.161,1.16,1.161h7.123c0.644,0,1.161-0.521,1.161-1.161
				v-0.072c0.46-0.135,0.808-0.547,0.835-1.047l0.729-12.416C305.493,18.864,305.834,18.423,305.834,17.906z M295.038,15.903h7.396
				c0.323,0,0.627,0.126,0.856,0.354l0.485,0.486h-10.08l0.486-0.486C294.41,16.029,294.715,15.903,295.038,15.903z M302.297,32.968
				h-7.123c-0.23,0-0.42-0.188-0.42-0.42v-0.022h7.963v0.022C302.717,32.779,302.527,32.968,302.297,32.968z M303.553,31.384
				c-0.013,0.226-0.197,0.396-0.419,0.396h-8.796c-0.223,0-0.406-0.177-0.42-0.396l-0.725-12.315h11.084L303.553,31.384z
				 M304.671,18.326H292.8c-0.231,0-0.42-0.188-0.42-0.42c0-0.232,0.188-0.42,0.42-0.42h11.871c0.231,0,0.421,0.188,0.421,0.42
				C305.092,18.138,304.902,18.326,304.671,18.326z"/>
		</g>
		<path fill="#3C3C3C" d="M303.016,19.909c-0.207-0.016-0.382,0.144-0.394,0.349l-0.047,0.791c-0.013,0.205,0.146,0.38,0.349,0.396
			h0.021c0.195,0,0.359-0.152,0.371-0.353l0.047-0.791C303.375,20.097,303.219,19.921,303.016,19.909z"/>
		<path fill="#3C3C3C" d="M302.875,22.283c-0.205-0.016-0.381,0.144-0.393,0.349l-0.279,4.75c-0.012,0.204,0.145,0.379,0.349,0.395
			l0.022,0.001c0.193,0,0.357-0.152,0.369-0.353l0.279-4.75C303.234,22.472,303.079,22.295,302.875,22.283z"/>
		<path fill="#3C3C3C" d="M50.757,22.973c0-3.958,3.221-7.179,7.179-7.179c0.186,0,0.335-0.15,0.335-0.335
			c0-0.186-0.15-0.335-0.335-0.335c-4.329,0-7.85,3.521-7.85,7.851c0,1.783,0.583,3.463,1.685,4.858
			c0.066,0.084,0.165,0.128,0.264,0.128l0.208-0.072c0.146-0.111,0.17-0.326,0.056-0.471C51.29,26.141,50.757,24.604,50.757,22.973z
			"/>
		<path fill="#3C3C3C" d="M65.451,22.639c-0.186,0-0.335,0.149-0.335,0.334c0,3.959-3.221,7.183-7.179,7.183
			c-1.704,0-3.355-0.607-4.65-1.709c-0.141-0.12-0.353-0.104-0.473,0.038c-0.12,0.141-0.103,0.353,0.038,0.473
			c1.417,1.205,3.223,1.869,5.085,1.869c4.329,0,7.85-3.521,7.85-7.854C65.786,22.789,65.636,22.639,65.451,22.639z"/>
		<path fill="#3C3C3C" d="M66.586,19.53L58.49,22.42l2.891-8.095c0.063-0.175-0.028-0.367-0.203-0.432
			c-1.041-0.37-2.132-0.561-3.242-0.561c-2.575,0-4.995,1.003-6.816,2.823c-1.82,1.818-2.823,4.24-2.823,6.813
			c0,2.576,1.003,4.996,2.823,6.816c1.821,1.82,4.241,2.823,6.816,2.823s4.995-1.003,6.816-2.823c1.82-1.82,2.823-4.24,2.823-6.816
			c0-1.106-0.188-2.199-0.561-3.24C66.952,19.557,66.76,19.467,66.586,19.53z M57.936,31.943c-4.945,0-8.968-4.023-8.968-8.972
			c0-4.941,4.023-8.967,8.968-8.967c0.92,0,1.827,0.139,2.699,0.415l-0.376,1.053c-0.272-0.084-0.549-0.15-0.828-0.207
			c-0.182-0.036-0.357,0.084-0.393,0.269c-0.035,0.182,0.084,0.355,0.266,0.393c0.245,0.047,0.489,0.108,0.729,0.185l-2.412,6.754
			c-0.043,0.122-0.013,0.258,0.079,0.35c0.092,0.092,0.228,0.122,0.35,0.079l6.754-2.412c0.073,0.239,0.134,0.483,0.182,0.729
			c0.031,0.157,0.171,0.271,0.329,0.271l0.064-0.006c0.182-0.035,0.301-0.211,0.266-0.396c-0.054-0.275-0.124-0.556-0.208-0.824
			l1.053-0.376c0.275,0.872,0.415,1.774,0.415,2.696C66.904,27.919,62.881,31.943,57.936,31.943z"/>
		<path fill="#3C3C3C" d="M65.325,15.34c-0.134-0.128-0.346-0.124-0.474,0.01c-0.128,0.137-0.124,0.349,0.01,0.477
			c0.187,0.179,0.365,0.369,0.531,0.563c0.066,0.079,0.162,0.12,0.257,0.12l0.216-0.079c0.142-0.119,0.16-0.331,0.041-0.473
			C65.725,15.743,65.529,15.535,65.325,15.34z"/>
		<path fill="#3C3C3C" d="M68.982,17.764c-0.476-1.332-1.258-2.564-2.263-3.569c-1.005-1.008-2.241-1.788-3.573-2.267l-0.256,0.016
			l-0.172,0.188l-3.129,8.762c-0.044,0.122-0.013,0.261,0.079,0.353l0.237,0.099l0.113-0.02l7.07-2.525l0,0l1.691-0.604l0.19-0.175
			L68.982,17.764z M67.17,18.055c-0.136-0.335-0.296-0.662-0.477-0.975c-0.093-0.16-0.298-0.215-0.458-0.122
			c-0.16,0.093-0.215,0.298-0.122,0.458c0.161,0.277,0.303,0.567,0.425,0.864l-6.08,2.172l2.171-6.08
			c0.42,0.173,0.824,0.386,1.205,0.636c0.155,0.104,0.363,0.062,0.464-0.097c0.102-0.155,0.059-0.363-0.097-0.464
			c-0.425-0.279-0.876-0.518-1.347-0.707l0.379-1.063c1.119,0.449,2.154,1.132,3.01,1.987c0.856,0.854,1.538,1.891,1.987,3.01
			L67.17,18.055z"/>
		<path fill="#3C3C3C" d="M54.91,22.785c0.093-0.16,0.039-0.365-0.122-0.458c-0.16-0.093-0.365-0.038-0.458,0.122
			c-0.068,0.118-0.194,0.188-0.329,0.188c-0.21,0-0.38-0.17-0.38-0.381c0-0.209,0.17-0.38,0.38-0.38c0.185,0,0.335-0.15,0.335-0.335
			c0-0.188-0.15-0.335-0.335-0.335c-0.58,0-1.051,0.471-1.051,1.052c0,0.58,0.47,1.049,1.05,1.049
			C54.374,23.309,54.723,23.109,54.91,22.785z"/>
		<path fill="#3C3C3C" d="M64.091,17.674c-0.16-0.093-0.366-0.038-0.458,0.123c-0.068,0.117-0.194,0.19-0.33,0.19
			c-0.209,0-0.38-0.17-0.38-0.38c0-0.209,0.17-0.383,0.38-0.383c0.186,0,0.335-0.147,0.335-0.335c0-0.186-0.15-0.335-0.335-0.335
			c-0.579,0-1.051,0.474-1.051,1.054c0,0.577,0.472,1.051,1.051,1.051c0.374,0,0.723-0.201,0.91-0.525
			C64.306,17.972,64.252,17.767,64.091,17.674z"/>
		<path fill="#3C3C3C" d="M60.895,27.609c0.374,0,0.723-0.201,0.91-0.525c0.093-0.16,0.038-0.365-0.122-0.458
			c-0.161-0.093-0.366-0.038-0.458,0.123c-0.068,0.117-0.194,0.188-0.33,0.188c-0.209,0-0.38-0.17-0.38-0.381
			c0-0.209,0.171-0.379,0.38-0.379c0.186,0,0.335-0.147,0.335-0.336c0-0.186-0.15-0.334-0.335-0.334
			c-0.58,0-1.051,0.471-1.051,1.051C59.843,27.138,60.315,27.609,60.895,27.609z"/>
		<path fill="#3C3C3C" d="M57.192,26.386c-0.068,0.116-0.194,0.189-0.33,0.189c-0.209,0-0.38-0.17-0.38-0.38s0.17-0.38,0.38-0.38
			c0.186,0,0.335-0.15,0.335-0.339c0-0.186-0.15-0.334-0.335-0.334c-0.58,0-1.051,0.475-1.051,1.054s0.472,1.051,1.051,1.051
			c0.374,0,0.723-0.201,0.91-0.525c0.093-0.16,0.038-0.361-0.122-0.457C57.49,26.169,57.285,26.223,57.192,26.386z"/>
		<path fill="#3C3C3C" d="M56.505,18.3c0.185,0,0.335-0.147,0.335-0.335c0-0.185-0.15-0.335-0.335-0.335
			c-0.58,0-1.051,0.472-1.051,1.051s0.472,1.054,1.051,1.054c0.374,0,0.722-0.201,0.91-0.525c0.093-0.16,0.038-0.365-0.123-0.458
			c-0.16-0.093-0.365-0.038-0.458,0.122c-0.068,0.117-0.194,0.188-0.329,0.188c-0.21,0-0.38-0.171-0.38-0.38
			S56.295,18.3,56.505,18.3z"/>
		<path fill="#3C3C3C" d="M55.194,20.59c-0.131,0.131-0.131,0.344,0,0.478l0.716,0.716l0.237,0.098l0.237-0.098
			c0.131-0.131,0.131-0.347,0-0.478l-0.715-0.716C55.538,20.459,55.325,20.459,55.194,20.59z"/>
		<path fill="#3C3C3C" d="M53.521,19.991c0.131-0.131,0.131-0.347,0-0.478s-0.343-0.131-0.475,0l-0.357,0.358
			c-0.131,0.131-0.131,0.343,0,0.474l0.237,0.101l0.237-0.101L53.521,19.991z"/>
		<path fill="#3C3C3C" d="M53.405,25.242l-0.358,0.355c-0.131,0.131-0.131,0.347,0,0.478l0.237,0.098l0.237-0.098l0.358-0.357
			c0.131-0.132,0.131-0.344,0-0.476C53.748,25.112,53.536,25.112,53.405,25.242z"/>
		<path fill="#3C3C3C" d="M59.01,24.745h0.715c0.186,0,0.335-0.15,0.335-0.335c0-0.188-0.15-0.335-0.335-0.335H59.01
			c-0.186,0-0.335,0.147-0.335,0.335C58.674,24.595,58.824,24.745,59.01,24.745z"/>
		<path fill="#3C3C3C" d="M63.303,23.667l0.237-0.098l0.358-0.358c0.131-0.131,0.131-0.343,0-0.475
			c-0.131-0.135-0.343-0.135-0.474,0l-0.358,0.355c-0.131,0.131-0.131,0.344,0,0.478L63.303,23.667z"/>
		<path fill="#3C3C3C" d="M62.708,26.078l0.237,0.099l0.237-0.099c0.131-0.131,0.131-0.343,0-0.477l-0.357-0.355
			c-0.131-0.131-0.344-0.131-0.475,0s-0.131,0.343,0,0.476L62.708,26.078z"/>
		<path fill="#3C3C3C" d="M58.294,29.035l0.237-0.102l0.357-0.354c0.131-0.131,0.131-0.344,0-0.478
			c-0.131-0.131-0.343-0.131-0.474,0l-0.358,0.357c-0.131,0.131-0.131,0.344,0,0.475L58.294,29.035z"/>
		<path fill="#3C3C3C" d="M56.146,24.031c0.186,0,0.336-0.15,0.336-0.335c0-0.188-0.15-0.335-0.336-0.335h-0.357
			c-0.185,0-0.335,0.147-0.335,0.335c0,0.185,0.15,0.335,0.335,0.335H56.146z"/>
		<path fill="#3C3C3C" d="M63.424,16.055l0.237,0.101l0.237-0.101c0.131-0.131,0.131-0.343,0-0.475l-0.358-0.358
			c-0.131-0.131-0.343-0.131-0.474,0s-0.131,0.347,0,0.478L63.424,16.055z"/>
		<path fill="#3C3C3C" d="M65.093,16.917c-0.186,0-0.335,0.15-0.335,0.335v0.711c0,0.188,0.15,0.335,0.335,0.335
			c0.185,0,0.335-0.147,0.335-0.335v-0.711C65.428,17.069,65.278,16.917,65.093,16.917z"/>
		<path fill="#3C3C3C" d="M55.194,28.225l0.237,0.101l0.237-0.101c0.131-0.131,0.131-0.344,0-0.476l-0.358-0.358
			c-0.131-0.131-0.343-0.131-0.475,0c-0.131,0.135-0.131,0.347,0,0.479L55.194,28.225z"/>
		<path fill="#3C3C3C" d="M61.514,23.673c0.186,0,0.335-0.147,0.335-0.336v-0.359c0-0.186-0.15-0.334-0.335-0.334
			s-0.335,0.149-0.335,0.334v0.358C61.179,23.52,61.329,23.673,61.514,23.673z"/>
		<path fill="#3C3C3C" d="M52.806,23.457l-0.358-0.358c-0.131-0.131-0.343-0.131-0.474,0c-0.131,0.131-0.131,0.347,0,0.478
			l0.357,0.354l0.237,0.102l0.237-0.102C52.937,23.8,52.937,23.588,52.806,23.457z"/>
		<path fill="#3C3C3C" d="M57.958,16.895v0.357c0,0.186,0.15,0.335,0.335,0.335s0.335-0.15,0.335-0.335v-0.357
			c0-0.186-0.15-0.335-0.335-0.335S57.958,16.71,57.958,16.895z"/>
		<path fill="#3C3C3C" d="M106.076,14.161c-2.163-2.163-5.038-3.354-8.097-3.354s-5.934,1.191-8.097,3.354
			c-2.162,2.163-3.354,5.038-3.354,8.098c0,3.062,1.191,5.937,3.354,8.096c2.163,2.164,5.039,3.354,8.097,3.354
			s5.934-1.19,8.097-3.354c2.163-2.159,3.354-5.034,3.354-8.096C109.43,19.199,108.239,16.324,106.076,14.161z M105.552,29.83
			c-2.023,2.021-4.712,3.136-7.572,3.136s-5.55-1.113-7.572-3.136c-2.022-2.023-3.137-4.712-3.137-7.571
			c0-2.857,1.114-5.551,3.137-7.573c2.023-2.021,4.712-3.136,7.572-3.136s5.549,1.114,7.572,3.136
			c2.022,2.022,3.136,4.715,3.136,7.573C108.688,25.118,107.574,27.807,105.552,29.83z"/>
		<path fill="#3C3C3C" d="M103.958,19.15c-0.187,0.084-0.27,0.304-0.185,0.488c0.373,0.824,0.563,1.706,0.563,2.619
			c0,2.295-1.245,4.403-3.215,5.525v-13.44c0-0.146-0.087-0.281-0.222-0.34c-0.135-0.059-0.292-0.033-0.4,0.067
			c-0.366,0.338-0.679,0.77-0.946,1.264c-0.513-0.116-1.042-0.176-1.572-0.176c-0.141,0-0.281,0.005-0.42,0.013v-0.829
			c0-0.205-0.166-0.371-0.371-0.371s-0.371,0.167-0.371,0.371v0.912c-0.288,0.05-0.569,0.115-0.843,0.195v-1.104
			c0-0.205-0.166-0.371-0.371-0.371s-0.371,0.167-0.371,0.371v1.369c-0.291,0.123-0.571,0.264-0.841,0.422v-1.791
			c0-0.205-0.167-0.371-0.371-0.371c-0.205,0-0.371,0.167-0.371,0.371v2.292c-1.683,1.299-2.77,3.335-2.77,5.623
			c0,1.895,0.735,3.67,2.071,5.01c0.072,0.072,0.167,0.109,0.263,0.109c0.095,0,0.189-0.035,0.262-0.107
			c0.145-0.146,0.146-0.381,0.001-0.522c-1.195-1.2-1.854-2.793-1.854-4.486c0-1.834,0.781-3.49,2.028-4.647v1.482
			c0,0.513,0.332,0.946,0.792,1.104v9.187c0,0.645,0.521,1.163,1.163,1.163c0.641,0,1.162-0.521,1.162-1.163v-0.13
			c0.399,0.068,0.805,0.104,1.212,0.104c0.272,0,0.546-0.019,0.816-0.05v0.07c0,0.645,0.521,1.163,1.163,1.163
			s1.162-0.521,1.162-1.163v-0.755c2.412-1.191,3.957-3.664,3.957-6.365c0-1.02-0.211-2.003-0.628-2.925
			C104.364,19.147,104.145,19.064,103.958,19.15z M96.817,16.009v1.921h-0.841v-1.704C96.249,16.135,96.53,16.062,96.817,16.009z
			 M95.234,16.527v1.401h-0.841v-0.917C94.66,16.83,94.941,16.667,95.234,16.527z M96.026,29.38c0,0.232-0.189,0.42-0.42,0.42
			c-0.232,0-0.421-0.188-0.421-0.42v-9.497c0-0.205-0.166-0.371-0.371-0.371c-0.232,0-0.42-0.188-0.42-0.42v-0.42h1.211h0.001h0.001
			h1.21v0.42c0,0.232-0.188,0.42-0.42,0.42c-0.205,0-0.371,0.166-0.371,0.371V29.38z M97.979,28.615
			c-0.408,0-0.814-0.04-1.212-0.116v-8.304c0.46-0.155,0.792-0.593,0.792-1.104v-3.176c0.139-0.009,0.279-0.015,0.42-0.015
			c0.419,0,0.836,0.042,1.243,0.122c-1.331,3.162-1.225,7.971-1.218,8.223c0.005,0.201,0.169,0.359,0.371,0.359h0.421v3.953
			C98.526,28.597,98.252,28.615,97.979,28.615z M100.378,29.38c0,0.232-0.188,0.42-0.42,0.42s-0.42-0.188-0.42-0.42v-5.144
			c0-0.205-0.166-0.371-0.371-0.371h-0.424c0-0.646,0.027-2.068,0.223-3.642c0.267-2.138,0.75-3.781,1.413-4.841L100.378,29.38
			L100.378,29.38z"/>
		<path fill="#3C3C3C" d="M102.092,17.411c0.263,0.224,0.51,0.471,0.734,0.731c0.074,0.086,0.178,0.134,0.283,0.134l0.24-0.091
			c0.156-0.133,0.175-0.364,0.042-0.521c-0.25-0.294-0.525-0.569-0.819-0.819c-0.156-0.132-0.391-0.11-0.523,0.043
			C101.917,17.044,101.936,17.28,102.092,17.411z"/>
		<path fill="#3C3C3C" d="M93.557,30.243c-1.449-0.808-2.653-1.986-3.482-3.421c-0.103-0.182-0.33-0.238-0.507-0.139
			c-0.177,0.104-0.238,0.33-0.135,0.51c0.897,1.551,2.199,2.83,3.765,3.695l0.18,0.047c0.13,0,0.257-0.065,0.324-0.188
			C93.801,30.569,93.736,30.343,93.557,30.243z"/>
		<path fill="#3C3C3C" d="M102.542,14.353c0.26,0.15,0.516,0.315,0.76,0.491l0.216,0.07c0.115,0,0.229-0.054,0.301-0.154
			c0.12-0.167,0.082-0.396-0.084-0.518c-0.264-0.19-0.54-0.368-0.821-0.531c-0.177-0.103-0.404-0.042-0.507,0.135
			C102.304,14.025,102.365,14.25,102.542,14.353z"/>
		<path fill="#3C3C3C" d="M107.633,20.202c-0.394-1.859-1.315-3.561-2.664-4.911c-0.145-0.146-0.38-0.146-0.525,0
			c-0.145,0.145-0.146,0.379,0,0.524c1.248,1.252,2.099,2.819,2.464,4.538c0.037,0.178,0.19,0.297,0.362,0.297l0.077-0.011
			C107.547,20.599,107.675,20.404,107.633,20.202z"/>
	</g>
	<g opacity="0.5">
		<g>
			<path fill="#3C3C3C" d="M185.71,49.25c0.151-0.191,0.179-0.447,0.072-0.667c-0.107-0.22-0.325-0.356-0.569-0.356h-2.357
				c0.006-0.438-0.211-0.855-0.572-1.106l0.188-0.478c0.063-0.162-0.018-0.344-0.179-0.404c-0.162-0.064-0.346,0.016-0.408,0.178
				l-0.188,0.479c-0.581-0.067-1.163,0.26-1.388,0.83l-0.197,0.504h-8.354c-0.244,0-0.462,0.139-0.568,0.355
				c-0.107,0.219-0.08,0.475,0.071,0.667l6.914,8.8v4.926c0,1.123-0.913,2.035-2.035,2.035h-1.007c-0.174,0-0.315,0.144-0.315,0.313
				c0,0.174,0.141,0.313,0.315,0.313h6.713c0.174,0,0.313-0.142,0.313-0.313s-0.142-0.313-0.313-0.313h-1.007
				c-1.122,0-2.035-0.914-2.035-2.035v-4.926L185.71,49.25z M180.046,52.213c0.328,0,0.476,0.063,0.66,0.143
				c0.211,0.094,0.451,0.193,0.907,0.193c0.402,0,0.637-0.08,0.83-0.16l-3.961,5.043l-3.961-5.043c0.194,0.08,0.428,0.16,0.829,0.16
				c0.456,0,0.696-0.103,0.907-0.193c0.186-0.076,0.332-0.143,0.659-0.143s0.473,0.063,0.658,0.143
				c0.211,0.094,0.451,0.193,0.907,0.193s0.696-0.103,0.907-0.193C179.571,52.277,179.719,52.213,180.046,52.213z M180.889,47.953
				c0.143-0.355,0.543-0.529,0.898-0.394c0.275,0.107,0.445,0.383,0.438,0.666h-1.44L180.889,47.953z M171.751,48.859l13.464-0.005
				l0.001,0.009l-2.141,2.725c-0.388,0.016-0.606,0.108-0.802,0.191c-0.188,0.08-0.334,0.143-0.66,0.143s-0.475-0.063-0.659-0.143
				c-0.125-0.058-0.261-0.111-0.444-0.149l0.641-1.628c0.063-0.162-0.017-0.345-0.178-0.408c-0.162-0.063-0.346,0.02-0.408,0.178
				l-0.713,1.822c-0.332,0.025-0.531,0.109-0.709,0.188c-0.186,0.08-0.333,0.143-0.659,0.143c-0.327,0-0.474-0.063-0.659-0.143
				c-0.211-0.094-0.45-0.193-0.906-0.193s-0.695,0.104-0.907,0.193c-0.186,0.08-0.332,0.143-0.659,0.143s-0.473-0.063-0.659-0.143
				c-0.194-0.083-0.413-0.18-0.801-0.191l-2.142-2.725L171.751,48.859z M179.113,65.012h-1.265c0.257-0.218,0.472-0.479,0.632-0.781
				C178.642,64.53,178.857,64.794,179.113,65.012z"/>
		</g>
		<path fill="#3C3C3C" d="M179.243,53.126l-1.055,2.685c-0.063,0.162,0.017,0.349,0.178,0.408l0.115,0.022
			c0.125,0,0.244-0.076,0.293-0.2l1.056-2.688c0.063-0.159-0.017-0.344-0.179-0.405C179.489,52.883,179.308,52.965,179.243,53.126z"
			/>
		<g>
			<path fill="#3C3C3C" d="M349.168,58.08c-0.069-0.096-0.181-0.152-0.3-0.152h-0.456l0.008-0.136c0.04-0.634,0.09-1.422-0.25-2.157
				c-0.354-0.771-1.054-1.313-2.123-1.646c0.592-1.67,0.001-3.167-0.632-4.158c-1.004-1.571-2.646-2.715-3.715-2.938
				c-0.164-1.354-1.322-2.414-2.727-2.414c-1.515,0-2.743,1.23-2.743,2.744c0,0.582,0.188,1.146,0.521,1.608
				c-0.488,0.034-0.978,0.056-1.445,0.077c-0.93,0.042-1.809,0.081-2.457,0.206c-0.179,0.031-0.559,0.105-0.861,0.3l-0.057,0.021
				c-0.734,0.408-1.408,1.604-1.638,2.904c-0.163,0.939-0.059,1.754,0.29,2.342c-0.5,0.416-1.415,1.241-1.516,3.25h-0.777
				c-0.119,0-0.229,0.059-0.3,0.151c-0.07,0.097-0.09,0.218-0.054,0.331l2.506,7.878c0.206,0.646,0.802,1.086,1.481,1.086h0.713
				h0.001h0.005h1.577h0.002l0,0h8.705h0.001h1.58h0.002h0.001h0.717c0.682,0,1.274-0.438,1.481-1.086l2.507-7.878
				C349.258,58.299,349.237,58.176,349.168,58.08z M336.973,47.219c0-1.104,0.898-2.002,2.004-2.002
				c1.091,0,1.978,0.871,2.002,1.953c-0.313,1.006-1.713,1.396-3.301,1.576C337.229,48.364,336.973,47.817,336.973,47.219z
				 M332.992,49.84c0.595-0.115,1.447-0.154,2.35-0.193c2.45-0.107,5.469-0.243,6.256-2.021c0.313,0.075,0.783,0.279,1.35,0.68
				c0.729,0.521,1.385,1.201,1.846,1.922c0.547,0.858,1.063,2.153,0.535,3.572c-0.775-0.172-1.868-0.352-3.108-0.556
				c-2.085-0.344-4.68-0.772-6.688-1.321c-0.979-0.267-3.248-0.973-3.248-1.761C332.281,50.075,332.467,49.939,332.992,49.84z
				 M331.027,52.465c0.106-0.636,0.355-1.271,0.653-1.738c0.82,1.543,5.054,2.363,10.412,3.248c1.4,0.23,2.61,0.434,3.362,0.615
				c2.382,0.586,2.296,1.952,2.221,3.156l-0.011,0.182h-9.902c-0.278-0.11-1.446-0.584-2.727-1.188
				c-1.904-0.9-3.176-1.681-3.678-2.247C330.998,54.079,330.876,53.34,331.027,52.465z M334.552,66.633l-1.086-7.963h1.99
				l0.362,7.963H334.552z M332.941,66.633l-1.813-7.963h1.585l1.086,7.963H332.941z M336.199,58.67h1.494h0.002h0.002h0.512v7.963
				h-1.648L336.199,58.67z M331.066,55.243c1.032,0.935,3.23,1.999,4.784,2.685h-6.038C329.903,56.26,330.605,55.626,331.066,55.243
				z M331.152,66.067l-2.354-7.396h1.57l1.81,7.963h-0.25C331.572,66.633,331.261,66.406,331.152,66.067z M346.009,66.067
				c-0.104,0.34-0.421,0.564-0.774,0.564h-0.25l1.243-5.479c0.048-0.2-0.077-0.398-0.276-0.444c-0.199-0.045-0.398,0.08-0.444,0.279
				l-1.283,5.646h-0.857l0.535-3.932c0.024-0.203-0.113-0.394-0.316-0.417c-0.203-0.028-0.391,0.111-0.418,0.314l-0.551,4.031h-1.27
				l0.108-2.382c0.01-0.205-0.149-0.378-0.354-0.387c-0.204-0.01-0.378,0.146-0.388,0.354l-0.105,2.416h-1.65v-7.963h2.011
				l-0.181,3.966c-0.01,0.205,0.146,0.377,0.354,0.387h0.021c0.195,0,0.358-0.152,0.371-0.354l0.182-3.999h1.99l-0.32,2.35
				c-0.026,0.203,0.113,0.393,0.316,0.418l0.051,0.002c0.184,0,0.343-0.135,0.367-0.317l0.334-2.449h1.586l-0.166,0.734
				c-0.047,0.196,0.08,0.396,0.279,0.44l0.08,0.01c0.172,0,0.321-0.114,0.36-0.286l0.204-0.898h1.569L346.009,66.067z"/>
		</g>
		<path fill="#3C3C3C" d="M338.977,46.056c-0.202,0-0.368,0.166-0.368,0.371s0.165,0.371,0.368,0.371
			c0.231,0,0.423,0.189,0.423,0.42c0,0.205,0.163,0.371,0.368,0.371s0.371-0.166,0.371-0.371
			C340.139,46.578,339.617,46.056,338.977,46.056z"/>
		<path fill="#3C3C3C" d="M339.712,55.103c0.274,0.043,0.538,0.082,0.79,0.123l0.059,0.004c0.183,0,0.341-0.131,0.365-0.313
			c0.031-0.203-0.104-0.392-0.311-0.424c-0.252-0.039-0.521-0.08-0.793-0.122c-0.201-0.03-0.395,0.105-0.422,0.312
			C339.371,54.885,339.509,55.074,339.712,55.103z"/>
		<path fill="#3C3C3C" d="M342.081,55.48c3.941,0.662,3.99,0.957,4.048,1.3c0.03,0.181,0.188,0.31,0.364,0.31l0.063-0.005
			c0.202-0.033,0.343-0.225,0.308-0.427c-0.073-0.448-0.266-0.784-0.972-1.073c-0.618-0.254-1.725-0.503-3.688-0.833
			c-0.202-0.034-0.396,0.103-0.428,0.306C341.741,55.255,341.879,55.447,342.081,55.48z"/>
		<path fill="#3C3C3C" d="M341.93,49.502c0.168,0.117,0.327,0.242,0.477,0.37l0.244,0.093c0.104,0,0.202-0.044,0.276-0.127
			c0.136-0.154,0.119-0.389-0.035-0.521c-0.166-0.146-0.347-0.288-0.534-0.424c-0.171-0.113-0.398-0.072-0.52,0.096
			S341.762,49.385,341.93,49.502z"/>
		<path fill="#3C3C3C" d="M343.749,52.365c0,0.205,0.167,0.371,0.371,0.371c0.205,0,0.371-0.166,0.371-0.371
			c0-0.198-0.038-0.908-0.534-1.771c-0.104-0.178-0.329-0.235-0.507-0.137s-0.238,0.329-0.137,0.508
			C343.737,51.7,343.749,52.299,343.749,52.365z"/>
		<path fill="#3C3C3C" d="M303.538,51.176c0-1.617-1.229-2.951-2.802-3.121c0.021-0.146,0.031-0.293,0.031-0.438
			c0-1.732-1.408-3.144-3.144-3.144c-1.729,0-3.144,1.408-3.144,3.144c0,0.146,0.013,0.294,0.031,0.438
			c-1.572,0.17-2.802,1.504-2.802,3.121c0,0.971,0.45,1.879,1.2,2.469l0.005,0.021l4.354,13.454c0.049,0.15,0.188,0.257,0.354,0.257
			c0.161,0,0.303-0.104,0.354-0.257l4.354-13.454l0.005-0.021C303.094,53.053,303.538,52.152,303.538,51.176z M302.796,51.176
			c0,0.813-0.401,1.561-1.08,2.004h-2.637c-0.677-0.443-1.081-1.188-1.081-2.004c0-1.322,1.076-2.396,2.398-2.396
			C301.721,48.779,302.796,49.853,302.796,51.176z M297.977,53.18h-0.697c0.136-0.16,0.25-0.334,0.351-0.519
			C297.727,52.846,297.842,53.017,297.977,53.18z M297.627,45.217c1.323,0,2.398,1.075,2.398,2.398c0,0.147-0.019,0.301-0.043,0.444
			c-1.021,0.139-1.892,0.766-2.355,1.638c-0.468-0.873-1.336-1.499-2.355-1.638c-0.025-0.146-0.043-0.297-0.043-0.444
			C295.229,46.292,296.305,45.217,297.627,45.217z M292.458,51.176c0-1.322,1.076-2.396,2.399-2.396
			c1.322,0,2.396,1.072,2.396,2.396c0,0.813-0.401,1.561-1.081,2.004h-2.638C292.867,52.738,292.458,51.986,292.458,51.176z
			 M299.657,53.922l-0.189,0.076c-0.188,0.076-0.282,0.292-0.206,0.479c0.059,0.146,0.196,0.232,0.346,0.232l0.139-0.027l1.697-0.68
			l-0.73,2.264l-0.847,0.343c-0.19,0.073-0.283,0.292-0.207,0.479c0.058,0.146,0.194,0.232,0.345,0.232l0.141-0.027l0.271-0.109
			l-0.73,2.267l-1.426,0.567c-0.188,0.076-0.281,0.291-0.207,0.481c0.061,0.146,0.196,0.233,0.346,0.233l0.139-0.027l0.85-0.34
			l-0.729,2.265l-1.813,0.729l-0.563-1.746l0.896-0.359c0.188-0.075,0.282-0.292,0.207-0.479c-0.076-0.19-0.293-0.283-0.479-0.207
			l-0.854,0.341l-0.563-1.744l1.098-0.438c0.188-0.073,0.283-0.293,0.207-0.479c-0.076-0.189-0.292-0.283-0.48-0.207l-1.053,0.42
			l-0.563-1.745l1.435-0.573c0.19-0.075,0.283-0.293,0.207-0.479c-0.074-0.19-0.292-0.283-0.48-0.207l-1.387,0.555l-0.675-2.08
			h5.871v-0.002h-0.007v-0.006H299.657z M297.627,65.799l-0.561-1.729l1.287-0.518L297.627,65.799z"/>
		<path fill="#3C3C3C" d="M294.857,50.361c0.449,0,0.813,0.363,0.813,0.813c0,0.205,0.166,0.371,0.371,0.371
			s0.371-0.166,0.371-0.371c0-0.855-0.699-1.558-1.561-1.558c-0.205,0-0.371,0.167-0.371,0.371
			C294.486,50.195,294.652,50.361,294.857,50.361z"/>
		<path fill="#3C3C3C" d="M297.627,46.799c0.45,0,0.816,0.366,0.816,0.816c0,0.205,0.166,0.371,0.371,0.371s0.371-0.167,0.371-0.371
			c0-0.859-0.699-1.562-1.562-1.562c-0.205,0-0.371,0.166-0.371,0.371S297.422,46.799,297.627,46.799z"/>
		<path fill="#3C3C3C" d="M300.025,49.99c0,0.205,0.166,0.371,0.371,0.371c0.449,0,0.813,0.363,0.813,0.813
			c0,0.205,0.166,0.371,0.371,0.371s0.371-0.166,0.371-0.371c0-0.855-0.699-1.558-1.56-1.558
			C300.191,49.618,300.025,49.785,300.025,49.99z"/>
		<path fill="#3C3C3C" d="M297.35,55.616l0.141-0.026l0.82-0.33c0.188-0.076,0.281-0.291,0.205-0.479
			c-0.074-0.19-0.291-0.283-0.479-0.207l-0.823,0.329c-0.188,0.073-0.28,0.292-0.207,0.479
			C297.063,55.528,297.201,55.616,297.35,55.616z"/>
		<path fill="#3C3C3C" d="M297.637,57.499c-0.188,0.076-0.281,0.292-0.207,0.479c0.063,0.146,0.198,0.234,0.346,0.234l0.141-0.027
			l0.841-0.336c0.188-0.073,0.283-0.293,0.207-0.479c-0.073-0.189-0.292-0.283-0.479-0.206L297.637,57.499z"/>
		<path fill="#3C3C3C" d="M146.999,63.073h-0.421v-6.355c0-1.078-0.876-1.955-1.954-1.955h-0.42v-6.354
			c0-1.078-0.877-1.954-1.954-1.954h-11.079c-1.077,0-1.954,0.876-1.954,1.954v6.354h-0.421c-1.077,0-1.953,0.877-1.953,1.955v6.355
			h-0.421c-0.641,0-1.162,0.521-1.162,1.163c0,0.641,0.521,1.158,1.162,1.158h20.577c0.641,0,1.162-0.521,1.162-1.158
			C148.161,63.594,147.64,63.073,146.999,63.073z M131.171,47.196h11.079c0.668,0,1.212,0.543,1.212,1.212
			c0,0.45-0.366,0.813-0.816,0.813c-0.448,0-0.814-0.362-0.814-0.813c0-0.205-0.166-0.371-0.371-0.371s-0.371,0.166-0.371,0.371
			c0,0.45-0.366,0.813-0.816,0.813c-0.448,0-0.814-0.362-0.814-0.813c0-0.205-0.167-0.371-0.371-0.371
			c-0.205,0-0.371,0.166-0.371,0.371c0,0.45-0.366,0.813-0.816,0.813c-0.449,0-0.815-0.362-0.815-0.813
			c0-0.205-0.166-0.371-0.371-0.371c-0.204,0-0.37,0.166-0.37,0.371c0,0.45-0.366,0.813-0.816,0.813
			c-0.449,0-0.815-0.362-0.815-0.813c0-0.205-0.166-0.371-0.371-0.371c-0.204,0-0.371,0.166-0.371,0.371
			c0,0.45-0.365,0.813-0.814,0.813c-0.45,0-0.816-0.362-0.816-0.813c0-0.205-0.166-0.371-0.371-0.371s-0.371,0.166-0.371,0.371
			c0,0.45-0.366,0.813-0.816,0.813c-0.448,0-0.814-0.362-0.814-0.813C129.959,47.739,130.502,47.196,131.171,47.196z
			 M129.959,53.922h8.334c0.205,0,0.371-0.167,0.371-0.371c0-0.205-0.166-0.371-0.371-0.371h-8.334v-3.443
			c0.237,0.146,0.517,0.229,0.814,0.229c0.477,0,0.901-0.214,1.188-0.551c0.286,0.336,0.712,0.551,1.188,0.551
			s0.9-0.214,1.188-0.551c0.286,0.336,0.712,0.551,1.188,0.551c0.477,0,0.901-0.214,1.188-0.551
			c0.286,0.336,0.712,0.551,1.188,0.551c0.477,0,0.901-0.214,1.188-0.551c0.286,0.336,0.712,0.551,1.187,0.551
			c0.477,0,0.901-0.214,1.188-0.551c0.286,0.336,0.712,0.551,1.187,0.551c0.301,0,0.579-0.085,0.816-0.229v3.443h-1.212
			c-0.204,0-0.371,0.166-0.371,0.371s0.167,0.371,0.371,0.371h1.212v0.84h-13.503v-0.84H129.959z M128.796,55.504h15.828
			c0.669,0,1.212,0.543,1.212,1.213c0,0.449-0.366,0.815-0.815,0.815s-0.815-0.366-0.815-0.815c0-0.205-0.166-0.371-0.371-0.371
			s-0.371,0.166-0.371,0.371c0,0.449-0.366,0.815-0.816,0.815c-0.448,0-0.814-0.366-0.814-0.815c0-0.205-0.166-0.371-0.371-0.371
			s-0.371,0.166-0.371,0.371c0,0.449-0.366,0.815-0.816,0.815c-0.448,0-0.814-0.366-0.814-0.815c0-0.205-0.167-0.371-0.371-0.371
			c-0.205,0-0.371,0.166-0.371,0.371c0,0.449-0.366,0.815-0.816,0.815c-0.449,0-0.815-0.366-0.815-0.815
			c0-0.205-0.166-0.371-0.371-0.371c-0.204,0-0.37,0.166-0.37,0.371c0,0.449-0.366,0.815-0.816,0.815
			c-0.449,0-0.815-0.366-0.815-0.815c0-0.205-0.166-0.371-0.371-0.371c-0.204,0-0.371,0.166-0.371,0.371
			c0,0.449-0.365,0.815-0.815,0.815c-0.449,0-0.815-0.366-0.815-0.815c0-0.205-0.166-0.371-0.371-0.371s-0.371,0.166-0.371,0.371
			c0,0.449-0.366,0.815-0.815,0.815c-0.449,0-0.815-0.366-0.815-0.815c0-0.205-0.166-0.371-0.371-0.371s-0.371,0.166-0.371,0.371
			c0,0.449-0.366,0.815-0.815,0.815s-0.815-0.366-0.815-0.815C127.585,56.049,128.128,55.504,128.796,55.504z M127.585,62.23h13.082
			c0.205,0,0.371-0.162,0.371-0.367s-0.166-0.371-0.371-0.371h-13.082v-3.446c0.237,0.146,0.517,0.231,0.814,0.231
			c0.477,0,0.901-0.217,1.188-0.555c0.286,0.336,0.712,0.555,1.187,0.555c0.477,0,0.901-0.217,1.188-0.555
			c0.286,0.336,0.712,0.555,1.188,0.555s0.9-0.217,1.188-0.555c0.286,0.336,0.712,0.555,1.188,0.555
			c0.477,0,0.901-0.217,1.188-0.555c0.286,0.336,0.712,0.555,1.188,0.555c0.477,0,0.901-0.217,1.188-0.555
			c0.286,0.336,0.712,0.555,1.187,0.555c0.477,0,0.901-0.217,1.188-0.555c0.286,0.336,0.712,0.555,1.187,0.555
			c0.477,0,0.901-0.217,1.188-0.555c0.286,0.336,0.712,0.555,1.188,0.555c0.3,0,0.578-0.088,0.815-0.231v3.446h-1.211
			c-0.205,0-0.371,0.167-0.371,0.371c0,0.205,0.166,0.367,0.371,0.367h1.211v0.845h-18.251V62.23H127.585z M146.999,64.656h-20.577
			c-0.231,0-0.42-0.188-0.42-0.42c0-0.232,0.188-0.42,0.42-0.42h20.577c0.23,0,0.42,0.188,0.42,0.42
			C147.419,64.467,147.23,64.656,146.999,64.656z"/>
		<path fill="#3C3C3C" d="M143.041,61.49h-0.791c-0.205,0-0.371,0.167-0.371,0.371c0,0.205,0.166,0.367,0.371,0.367h0.791
			c0.205,0,0.371-0.162,0.371-0.367C143.412,61.656,143.246,61.49,143.041,61.49z"/>
		<path fill="#3C3C3C" d="M140.667,53.18h-0.791c-0.205,0-0.371,0.166-0.371,0.371s0.166,0.371,0.371,0.371h0.791
			c0.205,0,0.371-0.167,0.371-0.371C141.038,53.346,140.872,53.18,140.667,53.18z"/>
		<path fill="#3C3C3C" d="M135.523,50.805c-0.204,0-0.37,0.168-0.37,0.371v0.396c0,0.205,0.165,0.371,0.37,0.371
			s0.371-0.167,0.371-0.371v-0.396C135.895,50.972,135.729,50.805,135.523,50.805z"/>
		<path fill="#3C3C3C" d="M137.897,50.805c-0.204,0-0.37,0.168-0.37,0.371v0.396c0,0.205,0.165,0.371,0.37,0.371
			s0.371-0.167,0.371-0.371v-0.396C138.269,50.972,138.103,50.805,137.897,50.805z"/>
		<path fill="#3C3C3C" d="M140.271,51.944c0.205,0,0.371-0.167,0.371-0.371v-0.396c0-0.205-0.166-0.371-0.371-0.371
			c-0.204,0-0.371,0.168-0.371,0.371v0.396C139.9,51.778,140.068,51.944,140.271,51.944z"/>
		<path fill="#3C3C3C" d="M142.646,51.944c0.205,0,0.371-0.167,0.371-0.371v-0.396c0-0.205-0.166-0.371-0.371-0.371
			c-0.204,0-0.37,0.168-0.37,0.371v0.396C142.275,51.778,142.441,51.944,142.646,51.944z"/>
		<path fill="#3C3C3C" d="M130.774,50.805c-0.203,0-0.369,0.168-0.369,0.371v0.396c0,0.205,0.166,0.371,0.369,0.371
			c0.205,0,0.371-0.167,0.371-0.371v-0.396C131.146,50.972,130.979,50.805,130.774,50.805z"/>
		<path fill="#3C3C3C" d="M133.149,50.805c-0.204,0-0.37,0.168-0.37,0.371v0.396c0,0.205,0.166,0.371,0.37,0.371
			s0.371-0.167,0.371-0.371v-0.396C133.521,50.972,133.354,50.805,133.149,50.805z"/>
		<path fill="#3C3C3C" d="M135.523,59.115c-0.204,0-0.37,0.166-0.37,0.371v0.396c0,0.204,0.165,0.37,0.37,0.37
			s0.371-0.166,0.371-0.37v-0.396C135.895,59.281,135.729,59.115,135.523,59.115z"/>
		<path fill="#3C3C3C" d="M137.897,59.115c-0.204,0-0.37,0.166-0.37,0.371v0.396c0,0.204,0.165,0.37,0.37,0.37
			s0.371-0.166,0.371-0.37v-0.396C138.269,59.281,138.103,59.115,137.897,59.115z"/>
		<path fill="#3C3C3C" d="M140.271,59.115c-0.204,0-0.371,0.166-0.371,0.371v0.396c0,0.204,0.167,0.37,0.371,0.37
			c0.205,0,0.371-0.166,0.371-0.37v-0.396C140.643,59.281,140.477,59.115,140.271,59.115z"/>
		<path fill="#3C3C3C" d="M142.646,60.253c0.205,0,0.371-0.166,0.371-0.37v-0.396c0-0.205-0.166-0.371-0.371-0.371
			c-0.204,0-0.37,0.166-0.37,0.371v0.396C142.275,60.087,142.441,60.253,142.646,60.253z"/>
		<path fill="#3C3C3C" d="M145.021,60.253c0.204,0,0.371-0.166,0.371-0.37v-0.396c0-0.205-0.167-0.371-0.371-0.371
			c-0.205,0-0.371,0.166-0.371,0.371v0.396C144.649,60.087,144.815,60.253,145.021,60.253z"/>
		<path fill="#3C3C3C" d="M128.4,59.115c-0.203,0-0.37,0.166-0.37,0.371v0.396c0,0.204,0.167,0.37,0.37,0.37
			c0.205,0,0.371-0.166,0.371-0.37v-0.396C128.771,59.281,128.605,59.115,128.4,59.115z"/>
		<path fill="#3C3C3C" d="M130.774,59.115c-0.203,0-0.369,0.166-0.369,0.371v0.396c0,0.204,0.166,0.37,0.369,0.37
			c0.205,0,0.371-0.166,0.371-0.37v-0.396C131.146,59.281,130.979,59.115,130.774,59.115z"/>
		<path fill="#3C3C3C" d="M133.149,59.115c-0.204,0-0.37,0.166-0.37,0.371v0.396c0,0.204,0.166,0.37,0.37,0.37
			s0.371-0.166,0.371-0.37v-0.396C133.521,59.281,133.354,59.115,133.149,59.115z"/>
		<g>
			<path fill="#3C3C3C" d="M66.34,55.627l-1.795-1.322l0.243-0.729c0.114-0.347-0.022-0.713-0.333-0.9l-1.34-0.804
				c-0.184-0.108-0.404-0.138-0.608-0.079l-0.107,0.04c-0.168-0.22-0.395-0.597-0.52-1.136c-0.077-0.333-0.286-0.609-0.604-0.797
				c-0.375-0.226-0.842-0.292-1.248-0.271c0.004-0.437-0.235-0.846-0.644-1.049l-0.03-0.015c-0.016-0.182-0.053-0.438-0.143-0.711
				c-0.227-0.689-0.669-1.172-1.281-1.387c-0.602-0.211-1.009-0.164-1.335-0.127c-0.424,0.047-0.729,0.082-1.491-0.453
				c-0.674-0.474-1.314-0.453-1.83-0.438c-0.308,0.01-0.574,0.018-0.82-0.063l-0.006-0.002l-1.146-0.845
				c-0.111-0.083-0.263-0.095-0.387-0.032c-0.125,0.063-0.204,0.191-0.204,0.332v20.184c0,1.295,1.054,2.35,2.351,2.35H64.14
				c1.297,0,2.35-1.054,2.35-2.35V55.92C66.49,55.806,66.436,55.698,66.34,55.627z M64.072,53.31l0.013,0.029l-0.168,0.502
				l-1.374-1.013l0.156-0.313l0.015-0.013l0.021,0.002L64.072,53.31z M59.055,49.246c0.178,0.089,0.268,0.285,0.221,0.479
				l-0.147,0.588l-2.009-1.479l0.154-0.154c0.129-0.129,0.323-0.16,0.485-0.08L59.055,49.246z M60.898,50.538
				c0.145,0.085,0.229,0.189,0.26,0.327c0.156,0.669,0.441,1.145,0.662,1.432l-2.047-1.509l0.099-0.395
				C60.183,50.34,60.611,50.368,60.898,50.538z M54.679,46.5c0.994,0.697,1.507,0.639,2.002,0.583
				c0.304-0.034,0.565-0.063,1.007,0.091c0.387,0.137,0.66,0.438,0.814,0.896l0.025,0.083l-0.438-0.223
				c-0.447-0.224-0.986-0.137-1.342,0.222l-0.234,0.231l-2.977-2.191C53.928,46.187,54.285,46.224,54.679,46.5z M65.749,65.027
				c0,0.887-0.722,1.604-1.608,1.604H53.063c-0.888,0-1.607-0.721-1.607-1.604V45.58l6.904,5.087l5.916,5.916
				c0.071,0.072,0.168,0.108,0.263,0.108c0.095,0,0.188-0.036,0.262-0.108c0.146-0.146,0.146-0.38,0-0.524l-2.453-2.45l3.403,2.507
				L65.749,65.027L65.749,65.027z"/>
		</g>
		<path fill="#3C3C3C" d="M52.928,47.353c-0.145-0.146-0.38-0.146-0.523,0c-0.146,0.146-0.146,0.382,0,0.523l11.87,11.872
			c0.071,0.072,0.168,0.109,0.263,0.109c0.095,0,0.188-0.037,0.262-0.109c0.146-0.146,0.146-0.38,0-0.523L52.928,47.353z"/>
		<path fill="#3C3C3C" d="M52.928,50.519c-0.145-0.146-0.38-0.146-0.523,0c-0.145,0.146-0.146,0.382,0,0.523l11.871,11.871
			c0.071,0.072,0.168,0.106,0.263,0.106c0.095,0,0.188-0.034,0.262-0.106c0.146-0.146,0.146-0.38,0-0.523L52.928,50.519z"/>
		<path fill="#3C3C3C" d="M52.928,53.683c-0.145-0.145-0.38-0.145-0.523,0c-0.145,0.146-0.146,0.379,0,0.524L63.88,65.683
			c0.071,0.072,0.167,0.109,0.262,0.109c0.097,0,0.19-0.037,0.263-0.109c0.146-0.145,0.146-0.379,0-0.521L52.928,53.683z"/>
		<path fill="#3C3C3C" d="M52.928,56.849c-0.145-0.145-0.38-0.145-0.523,0c-0.146,0.146-0.146,0.381,0,0.525l8.31,8.311
			c0.071,0.072,0.168,0.108,0.263,0.108c0.096,0,0.189-0.036,0.262-0.108c0.146-0.146,0.146-0.381,0-0.521L52.928,56.849z"/>
		<path fill="#3C3C3C" d="M52.928,60.015c-0.145-0.146-0.38-0.146-0.523,0c-0.146,0.146-0.146,0.379,0,0.524l5.145,5.144
			c0.072,0.072,0.167,0.109,0.262,0.109c0.096,0,0.19-0.037,0.264-0.109c0.145-0.145,0.145-0.379,0-0.521L52.928,60.015z"/>
		<path fill="#3C3C3C" d="M52.928,63.181c-0.145-0.146-0.38-0.146-0.523,0c-0.146,0.146-0.146,0.379,0,0.523l1.979,1.979
			c0.072,0.072,0.168,0.109,0.264,0.109c0.094,0,0.188-0.037,0.262-0.109c0.146-0.145,0.146-0.379,0-0.521L52.928,63.181z"/>
		<path fill="#3C3C3C" d="M29.401,54.99c-0.205,0-0.371-0.166-0.371-0.371c0-2.396-0.906-4.206-2.693-5.376
			c-1.602-1.048-3.855-1.58-6.704-1.58c-2.849,0-5.104,0.531-6.705,1.58c-1.787,1.17-2.692,2.979-2.692,5.376
			c0,0.205-0.166,0.371-0.371,0.371c-0.205,0-0.372-0.166-0.372-0.371c0-4.964,3.602-7.698,10.141-7.698
			c6.539,0,10.141,2.734,10.141,7.698C29.773,54.824,29.607,54.99,29.401,54.99z"/>
		<circle fill="#3C3C3C" cx="13.35" cy="51.337" r="0.371"/>
		<circle fill="#3C3C3C" cx="25.913" cy="51.337" r="0.371"/>
		<circle fill="#3C3C3C" cx="24.43" cy="62.317" r="0.371"/>
		<circle fill="#3C3C3C" cx="14.834" cy="52.375" r="0.371"/>
		<path fill="#3C3C3C" d="M26.433,64.933H12.829c-1.84,0-3.338-1.498-3.338-3.34c0-0.205,0.166-0.371,0.371-0.371
			c0.205,0,0.371,0.168,0.371,0.371c0,1.436,1.164,2.601,2.596,2.601h13.604c1.432,0,2.598-1.165,2.598-2.601
			c0-0.205,0.166-0.371,0.371-0.371s0.371,0.168,0.371,0.371C29.773,63.435,28.274,64.933,26.433,64.933z"/>
		<path fill="#3C3C3C" d="M29.401,58.699H9.862c-1.021,0-1.854-0.832-1.854-1.854v-0.742c0-1.021,0.832-1.854,1.854-1.854h19.539
			c1.021,0,1.854,0.832,1.854,1.854v0.742C31.255,57.867,30.423,58.699,29.401,58.699z M9.862,54.99
			c-0.612,0-1.111,0.499-1.111,1.11v0.742c0,0.613,0.499,1.112,1.111,1.112h19.539c0.613,0,1.112-0.499,1.112-1.112v-0.742
			c0-0.611-0.499-1.11-1.112-1.11H9.862z"/>
		<path fill="#3C3C3C" d="M27.134,61.172c-1.029,0-1.57-0.285-2.049-0.537c-0.46-0.242-0.855-0.451-1.703-0.451
			c-0.846,0-1.242,0.209-1.702,0.451c-0.478,0.252-1.019,0.537-2.049,0.537c-1.029,0-1.57-0.285-2.048-0.537
			c-0.461-0.242-0.856-0.451-1.702-0.451c-0.847,0-1.243,0.209-1.703,0.451c-0.478,0.252-1.019,0.537-2.048,0.537
			c-1.029,0-1.571-0.285-2.049-0.537c-0.459-0.242-0.856-0.451-1.702-0.451c-0.205,0-0.371-0.166-0.371-0.371
			c0-0.202,0.166-0.368,0.371-0.368c1.028,0,1.569,0.282,2.049,0.534c0.459,0.242,0.856,0.453,1.702,0.453
			c0.846,0,1.242-0.209,1.702-0.453c0.478-0.252,1.019-0.534,2.049-0.534c1.028,0,1.569,0.282,2.048,0.534
			c0.46,0.242,0.855,0.453,1.702,0.453c0.847,0,1.243-0.209,1.703-0.453c0.478-0.252,1.019-0.534,2.048-0.534
			c1.029,0,1.57,0.282,2.049,0.534c0.46,0.242,0.855,0.453,1.703,0.453c0.846,0,1.242-0.209,1.702-0.453
			c0.478-0.252,1.019-0.534,2.049-0.534c0.205,0,0.37,0.166,0.37,0.368c0,0.205-0.165,0.371-0.37,0.371
			c-0.847,0-1.243,0.209-1.703,0.451C28.704,60.887,28.163,61.172,27.134,61.172z"/>
		<g>
			<path fill="#3C3C3C" d="M104.465,51.573c0-0.584-0.436-1.07-0.997-1.15l-1.022-1.021c-0.369-0.369-0.859-0.572-1.381-0.572
				h-3.326v-1.497c0-0.576,0.41-1.075,0.975-1.188l4.663-0.933c0.2-0.04,0.331-0.235,0.291-0.437
				c-0.04-0.202-0.236-0.331-0.437-0.291l-4.664,0.933c-0.91,0.183-1.57,0.988-1.57,1.916v1.497H93.67
				c-0.521,0-1.012,0.203-1.381,0.572l-1.022,1.021c-0.563,0.08-0.997,0.565-0.997,1.149c0,0.519,0.342,0.958,0.811,1.104
				l0.73,12.416c0.028,0.5,0.373,0.912,0.834,1.047v0.072c0,0.641,0.521,1.161,1.161,1.161h7.123c0.642,0,1.162-0.521,1.162-1.161
				v-0.072c0.46-0.135,0.806-0.547,0.835-1.047l0.73-12.416C104.124,52.531,104.465,52.09,104.465,51.573z M93.669,49.57h7.396
				c0.323,0,0.627,0.126,0.856,0.354l0.485,0.486h-10.08l0.486-0.486C93.041,49.696,93.346,49.57,93.669,49.57z M100.928,66.635
				h-7.123c-0.23,0-0.42-0.188-0.42-0.42v-0.022h7.963v0.022C101.348,66.446,101.158,66.635,100.928,66.635z M102.184,65.051
				c-0.013,0.226-0.197,0.396-0.419,0.396h-8.796c-0.223,0-0.406-0.174-0.42-0.396l-0.725-12.313h11.084L102.184,65.051z
				 M103.302,51.993H91.431c-0.231,0-0.42-0.188-0.42-0.42c0-0.232,0.188-0.42,0.42-0.42h11.871c0.231,0,0.421,0.188,0.421,0.42
				C103.723,51.805,103.533,51.993,103.302,51.993z"/>
		</g>
		<path fill="#3C3C3C" d="M101.646,53.576c-0.207-0.017-0.382,0.145-0.394,0.35l-0.047,0.791c-0.013,0.204,0.146,0.379,0.349,0.396
			h0.021c0.195,0,0.359-0.152,0.371-0.353l0.047-0.791C102.006,53.764,101.85,53.588,101.646,53.576z"/>
		<path fill="#3C3C3C" d="M101.506,55.95c-0.205-0.016-0.381,0.144-0.393,0.349l-0.279,4.75c-0.012,0.204,0.145,0.379,0.349,0.395
			l0.022,0.001c0.193,0,0.357-0.152,0.369-0.353l0.279-4.75C101.865,56.139,101.71,55.962,101.506,55.95z"/>
		<path fill="#3C3C3C" d="M211.346,56.64c0-3.957,3.223-7.179,7.18-7.179c0.188,0,0.336-0.149,0.336-0.335s-0.148-0.335-0.336-0.335
			c-4.326,0-7.851,3.521-7.851,7.851c0,1.783,0.583,3.463,1.687,4.858c0.064,0.084,0.164,0.128,0.266,0.128l0.208-0.072
			c0.146-0.111,0.17-0.326,0.058-0.471C211.879,59.808,211.346,58.271,211.346,56.64z"/>
		<path fill="#3C3C3C" d="M226.04,56.306c-0.187,0-0.335,0.149-0.335,0.334c0,3.959-3.221,7.183-7.18,7.183
			c-1.703,0-3.354-0.607-4.649-1.709c-0.142-0.12-0.353-0.104-0.474,0.038c-0.119,0.141-0.104,0.353,0.039,0.473
			c1.416,1.205,3.223,1.869,5.084,1.869c4.33,0,7.851-3.521,7.851-7.854C226.375,56.456,226.227,56.306,226.04,56.306z"/>
		<path fill="#3C3C3C" d="M227.175,53.197l-8.096,2.891l2.892-8.095c0.063-0.175-0.027-0.367-0.203-0.433
			c-1.041-0.369-2.133-0.561-3.242-0.561c-2.572,0-4.992,1.003-6.813,2.823c-1.817,1.818-2.821,4.239-2.821,6.813
			c0,2.576,1.004,4.996,2.821,6.816c1.821,1.82,4.241,2.823,6.813,2.823c2.576,0,4.996-1.003,6.815-2.823
			c1.82-1.82,2.823-4.24,2.823-6.816c0-1.106-0.188-2.2-0.561-3.241C227.541,53.224,227.35,53.135,227.175,53.197z M218.525,65.61
			c-4.945,0-8.969-4.023-8.969-8.972c0-4.941,4.021-8.967,8.969-8.967c0.92,0,1.826,0.139,2.697,0.414l-0.375,1.053
			c-0.271-0.084-0.552-0.149-0.828-0.207c-0.185-0.032-0.356,0.084-0.396,0.27c-0.035,0.183,0.084,0.355,0.269,0.394
			c0.242,0.047,0.486,0.107,0.729,0.185l-2.412,6.754c-0.043,0.122-0.014,0.258,0.079,0.35c0.092,0.092,0.229,0.122,0.351,0.079
			l6.756-2.412c0.07,0.239,0.133,0.483,0.183,0.729c0.03,0.157,0.171,0.271,0.327,0.271l0.063-0.006
			c0.185-0.035,0.304-0.211,0.269-0.394c-0.055-0.277-0.123-0.559-0.207-0.826l1.053-0.376c0.275,0.872,0.415,1.774,0.415,2.696
			C227.493,61.586,223.471,65.61,218.525,65.61z"/>
		<path fill="#3C3C3C" d="M225.914,49.008c-0.135-0.129-0.346-0.125-0.475,0.01c-0.127,0.137-0.123,0.349,0.011,0.477
			c0.187,0.179,0.364,0.369,0.53,0.563c0.063,0.08,0.162,0.121,0.258,0.121l0.216-0.08c0.142-0.119,0.16-0.33,0.041-0.473
			C226.314,49.41,226.118,49.202,225.914,49.008z"/>
		<path fill="#3C3C3C" d="M229.57,51.431c-0.479-1.332-1.258-2.564-2.262-3.569c-1.009-1.009-2.242-1.788-3.574-2.267l-0.256,0.016
			l-0.172,0.188l-3.132,8.762c-0.044,0.121-0.013,0.261,0.079,0.353l0.237,0.1l0.11-0.021l7.069-2.524l0,0l1.69-0.604l0.19-0.176
			L229.57,51.431z M227.759,51.722c-0.136-0.336-0.296-0.662-0.477-0.976c-0.093-0.16-0.298-0.215-0.458-0.122
			c-0.16,0.094-0.215,0.299-0.122,0.458c0.161,0.277,0.303,0.567,0.425,0.864l-6.08,2.172l2.171-6.08
			c0.421,0.173,0.824,0.387,1.205,0.637c0.155,0.104,0.363,0.062,0.464-0.098c0.104-0.154,0.063-0.363-0.097-0.464
			c-0.425-0.279-0.876-0.518-1.347-0.707l0.379-1.063c1.119,0.448,2.154,1.131,3.01,1.986c0.855,0.854,1.538,1.891,1.986,3.01
			L227.759,51.722z"/>
		<path fill="#3C3C3C" d="M215.499,56.452c0.093-0.16,0.039-0.365-0.122-0.458c-0.16-0.093-0.365-0.038-0.458,0.122
			c-0.067,0.118-0.192,0.188-0.329,0.188c-0.21,0-0.38-0.17-0.38-0.381c0-0.209,0.17-0.38,0.38-0.38
			c0.186,0,0.335-0.149,0.335-0.335c0-0.187-0.149-0.335-0.335-0.335c-0.58,0-1.051,0.472-1.051,1.052s0.47,1.049,1.05,1.049
			C214.963,56.976,215.313,56.776,215.499,56.452z"/>
		<path fill="#3C3C3C" d="M224.68,51.342c-0.158-0.094-0.365-0.039-0.457,0.123c-0.068,0.116-0.193,0.189-0.33,0.189
			c-0.209,0-0.381-0.17-0.381-0.38c0-0.209,0.17-0.383,0.381-0.383c0.188,0,0.336-0.147,0.336-0.336
			c0-0.186-0.148-0.334-0.336-0.334c-0.578,0-1.052,0.474-1.052,1.054c0,0.577,0.474,1.051,1.052,1.051
			c0.373,0,0.726-0.201,0.909-0.525C224.896,51.639,224.841,51.433,224.68,51.342z"/>
		<path fill="#3C3C3C" d="M221.484,61.276c0.373,0,0.723-0.201,0.91-0.525c0.092-0.16,0.037-0.365-0.123-0.458
			s-0.365-0.038-0.457,0.123c-0.068,0.117-0.194,0.188-0.33,0.188c-0.209,0-0.381-0.17-0.381-0.381c0-0.209,0.172-0.379,0.381-0.379
			c0.186,0,0.334-0.147,0.334-0.336c0-0.186-0.149-0.334-0.334-0.334c-0.58,0-1.053,0.471-1.053,1.051
			S220.904,61.276,221.484,61.276z"/>
		<path fill="#3C3C3C" d="M217.781,60.053c-0.068,0.116-0.194,0.189-0.33,0.189c-0.209,0-0.381-0.17-0.381-0.38
			s0.171-0.38,0.381-0.38c0.186,0,0.335-0.15,0.335-0.339c0-0.186-0.149-0.334-0.335-0.334c-0.58,0-1.051,0.475-1.051,1.054
			s0.472,1.051,1.051,1.051c0.374,0,0.723-0.201,0.91-0.525c0.093-0.16,0.037-0.361-0.122-0.457
			C218.079,59.836,217.874,59.89,217.781,60.053z"/>
		<path fill="#3C3C3C" d="M217.094,51.967c0.186,0,0.336-0.146,0.336-0.334c0-0.186-0.15-0.336-0.336-0.336
			c-0.58,0-1.051,0.473-1.051,1.051c0,0.58,0.473,1.055,1.051,1.055c0.374,0,0.723-0.201,0.91-0.525
			c0.094-0.159,0.038-0.364-0.123-0.458c-0.16-0.093-0.365-0.038-0.458,0.122c-0.067,0.117-0.192,0.188-0.329,0.188
			c-0.21,0-0.38-0.172-0.38-0.381S216.884,51.967,217.094,51.967z"/>
		<path fill="#3C3C3C" d="M215.783,54.258c-0.131,0.131-0.131,0.344,0,0.478l0.716,0.716l0.237,0.098l0.236-0.098
			c0.131-0.131,0.131-0.348,0-0.479l-0.718-0.715C216.127,54.126,215.914,54.126,215.783,54.258z"/>
		<path fill="#3C3C3C" d="M214.109,53.658c0.132-0.131,0.132-0.347,0-0.478c-0.131-0.131-0.342-0.131-0.478,0l-0.354,0.357
			c-0.131,0.131-0.131,0.344,0,0.475l0.236,0.101l0.235-0.101L214.109,53.658z"/>
		<path fill="#3C3C3C" d="M213.994,58.909l-0.358,0.355c-0.131,0.134-0.131,0.347,0,0.478l0.237,0.098l0.236-0.098l0.355-0.357
			c0.133-0.132,0.133-0.344,0-0.476C214.337,58.779,214.125,58.779,213.994,58.909z"/>
		<path fill="#3C3C3C" d="M219.6,58.412h0.715c0.188,0,0.336-0.15,0.336-0.335c0-0.188-0.148-0.335-0.336-0.335H219.6
			c-0.187,0-0.336,0.147-0.336,0.335C219.264,58.262,219.413,58.412,219.6,58.412z"/>
		<path fill="#3C3C3C" d="M223.893,57.334l0.236-0.098l0.357-0.358c0.132-0.131,0.132-0.343,0-0.475
			c-0.131-0.135-0.342-0.135-0.477,0l-0.355,0.355c-0.131,0.131-0.131,0.344,0,0.478L223.893,57.334z"/>
		<path fill="#3C3C3C" d="M223.297,59.745l0.237,0.099l0.237-0.099c0.131-0.131,0.131-0.343,0-0.477l-0.357-0.355
			c-0.131-0.131-0.344-0.131-0.475,0s-0.131,0.343,0,0.476L223.297,59.745z"/>
		<path fill="#3C3C3C" d="M218.883,62.702l0.237-0.102l0.356-0.354c0.131-0.131,0.131-0.344,0-0.478
			c-0.134-0.131-0.346-0.131-0.477,0l-0.355,0.357c-0.131,0.131-0.131,0.344,0,0.475L218.883,62.702z"/>
		<path fill="#3C3C3C" d="M216.734,57.698c0.187,0,0.336-0.15,0.336-0.335c0-0.188-0.149-0.335-0.336-0.335h-0.356
			c-0.185,0-0.335,0.147-0.335,0.335c0,0.185,0.15,0.335,0.335,0.335H216.734z"/>
		<path fill="#3C3C3C" d="M224.014,49.722l0.236,0.101l0.236-0.101c0.132-0.131,0.132-0.344,0-0.476l-0.357-0.358
			c-0.131-0.131-0.343-0.131-0.475,0c-0.131,0.131-0.131,0.348,0,0.479L224.014,49.722z"/>
		<path fill="#3C3C3C" d="M225.682,50.584c-0.186,0-0.334,0.15-0.334,0.335v0.711c0,0.188,0.149,0.335,0.334,0.335
			c0.188,0,0.336-0.146,0.336-0.335v-0.711C226.018,50.736,225.867,50.584,225.682,50.584z"/>
		<path fill="#3C3C3C" d="M215.783,61.892l0.236,0.101l0.234-0.101c0.131-0.131,0.131-0.344,0-0.476l-0.355-0.358
			c-0.131-0.131-0.344-0.131-0.478,0c-0.131,0.135-0.131,0.347,0,0.479L215.783,61.892z"/>
		<path fill="#3C3C3C" d="M222.104,57.34c0.188,0,0.336-0.147,0.336-0.336v-0.359c0-0.186-0.148-0.334-0.336-0.334
			c-0.186,0-0.334,0.149-0.334,0.334v0.358C221.77,57.187,221.918,57.34,222.104,57.34z"/>
		<path fill="#3C3C3C" d="M213.396,57.124l-0.358-0.358c-0.131-0.131-0.343-0.131-0.474,0c-0.133,0.131-0.133,0.347,0,0.478
			l0.354,0.354l0.236,0.102l0.236-0.102C213.525,57.467,213.525,57.255,213.396,57.124z"/>
		<path fill="#3C3C3C" d="M218.547,50.562v0.356c0,0.187,0.15,0.335,0.335,0.335c0.187,0,0.335-0.15,0.335-0.335v-0.356
			c0-0.187-0.148-0.336-0.335-0.336C218.697,50.226,218.547,50.377,218.547,50.562z"/>
		<path fill="#3C3C3C" d="M266.665,47.828c-2.163-2.163-5.038-3.354-8.097-3.354c-3.063,0-5.938,1.19-8.098,3.354
			c-2.162,2.163-3.354,5.038-3.354,8.098c0,3.062,1.19,5.937,3.354,8.096c2.16,2.164,5.036,3.354,8.098,3.354
			c3.058,0,5.934-1.19,8.097-3.354c2.163-2.159,3.354-5.034,3.354-8.096C270.02,52.866,268.828,49.991,266.665,47.828z
			 M266.141,63.497c-2.021,2.021-4.711,3.136-7.57,3.136c-2.858,0-5.551-1.113-7.57-3.136c-2.021-2.023-3.139-4.712-3.139-7.571
			c0-2.857,1.113-5.551,3.139-7.572c2.023-2.021,4.712-3.137,7.57-3.137c2.859,0,5.551,1.114,7.57,3.137
			c2.022,2.021,3.137,4.715,3.137,7.572C269.277,58.785,268.163,61.474,266.141,63.497z"/>
		<path fill="#3C3C3C" d="M264.547,52.817c-0.188,0.084-0.27,0.304-0.186,0.487c0.373,0.824,0.563,1.707,0.563,2.619
			c0,2.295-1.244,4.403-3.215,5.525V48.012c0-0.146-0.087-0.281-0.223-0.341c-0.135-0.059-0.293-0.032-0.399,0.067
			c-0.364,0.338-0.679,0.77-0.944,1.264c-0.515-0.115-1.041-0.176-1.572-0.176c-0.141,0-0.279,0.005-0.42,0.014v-0.83
			c0-0.205-0.166-0.371-0.371-0.371c-0.203,0-0.369,0.168-0.369,0.371v0.912c-0.288,0.049-0.569,0.113-0.844,0.193v-1.104
			c0-0.205-0.166-0.371-0.371-0.371c-0.204,0-0.37,0.166-0.37,0.371v1.368c-0.291,0.123-0.571,0.265-0.843,0.423v-1.791
			c0-0.205-0.166-0.371-0.371-0.371c-0.203,0-0.369,0.166-0.369,0.371v2.291c-1.686,1.299-2.771,3.336-2.771,5.623
			c0,1.895,0.733,3.67,2.069,5.01c0.071,0.072,0.167,0.109,0.265,0.109c0.096,0,0.188-0.035,0.262-0.107
			c0.146-0.146,0.146-0.381,0.002-0.522c-1.194-1.2-1.854-2.793-1.854-4.486c0-1.834,0.781-3.49,2.028-4.647v1.481
			c0,0.514,0.332,0.946,0.792,1.104v9.187c0,0.645,0.521,1.163,1.163,1.163c0.641,0,1.161-0.521,1.161-1.163v-0.128
			c0.396,0.068,0.806,0.104,1.211,0.104c0.271,0,0.548-0.019,0.816-0.05v0.07c0,0.645,0.521,1.163,1.161,1.163
			c0.644,0,1.162-0.521,1.162-1.163v-0.756c2.412-1.191,3.957-3.664,3.957-6.365c0-1.02-0.211-2.004-0.628-2.925
			C264.953,52.814,264.734,52.73,264.547,52.817z M257.406,49.676v1.922h-0.842v-1.705
			C256.838,49.803,257.119,49.728,257.406,49.676z M255.823,50.194v1.401h-0.841v-0.917
			C255.249,50.497,255.529,50.334,255.823,50.194z M256.615,63.047c0,0.232-0.189,0.42-0.42,0.42c-0.232,0-0.422-0.188-0.422-0.42
			v-9.496c0-0.205-0.166-0.371-0.371-0.371c-0.231,0-0.42-0.188-0.42-0.42v-0.42h1.211h0.002l0,0h1.211v0.42
			c0,0.231-0.188,0.42-0.42,0.42c-0.205,0-0.371,0.166-0.371,0.371V63.047L256.615,63.047z M258.568,62.281
			c-0.408,0-0.814-0.04-1.213-0.116v-8.304c0.461-0.155,0.793-0.593,0.793-1.104V49.58c0.139-0.009,0.275-0.015,0.42-0.015
			c0.418,0,0.836,0.042,1.242,0.121c-1.33,3.163-1.228,7.972-1.221,8.224c0.008,0.201,0.171,0.359,0.371,0.359h0.421v3.953
			C259.115,62.264,258.841,62.281,258.568,62.281z M260.967,63.047c0,0.232-0.188,0.42-0.42,0.42c-0.23,0-0.42-0.188-0.42-0.42
			v-5.144c0-0.205-0.166-0.371-0.371-0.371h-0.424c0-0.646,0.027-2.067,0.223-3.643c0.268-2.138,0.75-3.78,1.413-4.84
			L260.967,63.047L260.967,63.047z"/>
		<path fill="#3C3C3C" d="M262.682,51.078c0.264,0.225,0.51,0.471,0.733,0.731c0.074,0.089,0.178,0.134,0.283,0.134l0.239-0.091
			c0.153-0.133,0.176-0.364,0.043-0.521c-0.25-0.294-0.525-0.568-0.819-0.818c-0.156-0.133-0.392-0.11-0.522,0.043
			C262.506,50.711,262.525,50.947,262.682,51.078z"/>
		<path fill="#3C3C3C" d="M254.146,63.91c-1.449-0.808-2.653-1.986-3.482-3.421c-0.104-0.182-0.33-0.238-0.507-0.139
			c-0.177,0.104-0.238,0.33-0.136,0.51c0.896,1.551,2.199,2.83,3.766,3.695l0.18,0.047c0.131,0,0.258-0.065,0.324-0.188
			C254.391,64.236,254.325,64.01,254.146,63.91z"/>
		<path fill="#3C3C3C" d="M263.131,48.019c0.26,0.15,0.518,0.315,0.76,0.492l0.217,0.069c0.115,0,0.229-0.054,0.304-0.153
			c0.12-0.168,0.082-0.396-0.084-0.519c-0.267-0.19-0.54-0.368-0.821-0.531c-0.177-0.103-0.402-0.042-0.507,0.136
			C262.895,47.692,262.954,47.917,263.131,48.019z"/>
		<path fill="#3C3C3C" d="M268.223,53.869c-0.395-1.859-1.313-3.562-2.664-4.911c-0.146-0.146-0.381-0.146-0.522,0
			c-0.146,0.146-0.146,0.379,0,0.524c1.248,1.252,2.099,2.819,2.464,4.541c0.037,0.175,0.188,0.294,0.359,0.294l0.078-0.012
			C268.136,54.265,268.264,54.071,268.223,53.869z"/>
	</g>
</g>
</svg>
